<?xml version="1.0" standalone="no"?>
 <!DOCTYPE svg PUBLIC "-//W3C//DTD SVG 1.1//EN" 
 "http://www.w3.org/Graphics/SVG/1.1/DTD/svg11.dtd"> 
<svg xmlns="http://www.w3.org/2000/svg" version="1.1" 
    width="29.7002cm" height="21.0007cm" viewBox="0 0 116930 82680 ">
<title>SVG Picture created as MiniDox-brd.svg date 2017/01/29 18:58:06 </title>
  <desc>Picture generated by PCBNEW </desc>
<g style="fill:#000000; fill-opacity:1;stroke:#000000; stroke-opacity:1;
stroke-linecap:round; stroke-linejoin:round; "
 transform="translate(0 0) scale(1 1)">
</g>
<g style="fill:#000000; fill-opacity:0.0; 
stroke:#000000; stroke-width:-0.000393701; stroke-opacity:1; 
stroke-linecap:round; stroke-linejoin:round;">
</g>
<g style="fill:#000000; fill-opacity:0.0; 
stroke:#000000; stroke-width:39.3701; stroke-opacity:1; 
stroke-linecap:round; stroke-linejoin:round;">
</g>
<g style="fill:#000000; fill-opacity:0.0; 
stroke:#000000; stroke-width:59.0551; stroke-opacity:1; 
stroke-linecap:round; stroke-linejoin:round;">
<rect x="69685.9" y="65357.2" width="42519.7" height="12598.4" rx="0" />
</g>
<g style="fill:#000000; fill-opacity:0.0; 
stroke:#000000; stroke-width:39.3701; stroke-opacity:1; 
stroke-linecap:round; stroke-linejoin:round;">
</g>
<g style="fill:#000000; fill-opacity:0.0; 
stroke:#000000; stroke-width:59.0551; stroke-opacity:1; 
stroke-linecap:round; stroke-linejoin:round;">
<rect x="3937.01" y="3937.01" width="109056" height="74806" rx="0" />
</g>
<g style="fill:#000000; fill-opacity:0.0; 
stroke:#000000; stroke-width:39.3701; stroke-opacity:1; 
stroke-linecap:round; stroke-linejoin:round;">
</g>
<g style="fill:#000000; fill-opacity:0.0; 
stroke:#000000; stroke-width:59.0551; stroke-opacity:1; 
stroke-linecap:round; stroke-linejoin:round;">
<rect x="4724.41" y="4724.41" width="107481" height="73231.2" rx="0" />
</g>
<g style="fill:#000000; fill-opacity:0.0; 
stroke:#000000; stroke-width:39.3701; stroke-opacity:1; 
stroke-linecap:round; stroke-linejoin:round;">
</g>
<g style="fill:#000000; fill-opacity:0.0; 
stroke:#000000; stroke-width:59.0551; stroke-opacity:1; 
stroke-linecap:round; stroke-linejoin:round;">
<path d="M23622 4724
L23622 3937
" />
</g>
<g style="fill:#000000; fill-opacity:0.0; 
stroke:#000000; stroke-width:39.3701; stroke-opacity:1; 
stroke-linecap:round; stroke-linejoin:round;">
</g>
<g style="fill:#000000; fill-opacity:0.0; 
stroke:#000000; stroke-width:59.0551; stroke-opacity:1; 
stroke-linecap:round; stroke-linejoin:round;">
<path d="M43307 4724
L43307 3937
" />
</g>
<g style="fill:#000000; fill-opacity:0.0; 
stroke:#000000; stroke-width:39.3701; stroke-opacity:1; 
stroke-linecap:round; stroke-linejoin:round;">
</g>
<g style="fill:#000000; fill-opacity:0.0; 
stroke:#000000; stroke-width:59.0551; stroke-opacity:1; 
stroke-linecap:round; stroke-linejoin:round;">
<path d="M62992 4724
L62992 3937
" />
</g>
<g style="fill:#000000; fill-opacity:0.0; 
stroke:#000000; stroke-width:39.3701; stroke-opacity:1; 
stroke-linecap:round; stroke-linejoin:round;">
</g>
<g style="fill:#000000; fill-opacity:0.0; 
stroke:#000000; stroke-width:59.0551; stroke-opacity:1; 
stroke-linecap:round; stroke-linejoin:round;">
<path d="M82677 4724
L82677 3937
" />
</g>
<g style="fill:#000000; fill-opacity:0.0; 
stroke:#000000; stroke-width:39.3701; stroke-opacity:1; 
stroke-linecap:round; stroke-linejoin:round;">
</g>
<g style="fill:#000000; fill-opacity:0.0; 
stroke:#000000; stroke-width:59.0551; stroke-opacity:1; 
stroke-linecap:round; stroke-linejoin:round;">
<path d="M102362 4724
L102362 3937
" />
</g>
<g style="fill:#000000; fill-opacity:0.0; 
stroke:#000000; stroke-width:39.3701; stroke-opacity:1; 
stroke-linecap:round; stroke-linejoin:round;">
</g>
<g style="fill:#000000; fill-opacity:0.0; 
stroke:#000000; stroke-width:59.0551; stroke-opacity:1; 
stroke-linecap:round; stroke-linejoin:round;">
<path d="M14169 4562
L13877 4562
" />
<path d="M14023 4562
L14023 4050
L13974 4123
L13925 4172
L13877 4196
" />
</g>
<g style="fill:#000000; fill-opacity:0.0; 
stroke:#000000; stroke-width:39.3701; stroke-opacity:1; 
stroke-linecap:round; stroke-linejoin:round;">
</g>
<g style="fill:#000000; fill-opacity:0.0; 
stroke:#000000; stroke-width:59.0551; stroke-opacity:1; 
stroke-linecap:round; stroke-linejoin:round;">
<path d="M33562 4099
L33586 4074
L33635 4050
L33757 4050
L33805 4074
L33830 4099
L33854 4147
L33854 4196
L33830 4269
L33537 4562
L33854 4562
" />
</g>
<g style="fill:#000000; fill-opacity:0.0; 
stroke:#000000; stroke-width:39.3701; stroke-opacity:1; 
stroke-linecap:round; stroke-linejoin:round;">
</g>
<g style="fill:#000000; fill-opacity:0.0; 
stroke:#000000; stroke-width:59.0551; stroke-opacity:1; 
stroke-linecap:round; stroke-linejoin:round;">
<path d="M53222 4050
L53539 4050
L53368 4245
L53442 4245
L53490 4269
L53515 4294
L53539 4342
L53539 4464
L53515 4513
L53490 4537
L53442 4562
L53295 4562
L53247 4537
L53222 4513
" />
</g>
<g style="fill:#000000; fill-opacity:0.0; 
stroke:#000000; stroke-width:39.3701; stroke-opacity:1; 
stroke-linecap:round; stroke-linejoin:round;">
</g>
<g style="fill:#000000; fill-opacity:0.0; 
stroke:#000000; stroke-width:59.0551; stroke-opacity:1; 
stroke-linecap:round; stroke-linejoin:round;">
<path d="M73175 4221
L73175 4562
" />
<path d="M73053 4026
L72932 4391
L73248 4391
" />
</g>
<g style="fill:#000000; fill-opacity:0.0; 
stroke:#000000; stroke-width:39.3701; stroke-opacity:1; 
stroke-linecap:round; stroke-linejoin:round;">
</g>
<g style="fill:#000000; fill-opacity:0.0; 
stroke:#000000; stroke-width:59.0551; stroke-opacity:1; 
stroke-linecap:round; stroke-linejoin:round;">
<path d="M92885 4050
L92641 4050
L92617 4294
L92641 4269
L92690 4245
L92812 4245
L92860 4269
L92885 4294
L92909 4342
L92909 4464
L92885 4513
L92860 4537
L92812 4562
L92690 4562
L92641 4537
L92617 4513
" />
</g>
<g style="fill:#000000; fill-opacity:0.0; 
stroke:#000000; stroke-width:39.3701; stroke-opacity:1; 
stroke-linecap:round; stroke-linejoin:round;">
</g>
<g style="fill:#000000; fill-opacity:0.0; 
stroke:#000000; stroke-width:59.0551; stroke-opacity:1; 
stroke-linecap:round; stroke-linejoin:round;">
<path d="M112545 4050
L112448 4050
L112399 4074
L112375 4099
L112326 4172
L112302 4269
L112302 4464
L112326 4513
L112350 4537
L112399 4562
L112497 4562
L112545 4537
L112570 4513
L112594 4464
L112594 4342
L112570 4294
L112545 4269
L112497 4245
L112399 4245
L112350 4269
L112326 4294
L112302 4342
" />
</g>
<g style="fill:#000000; fill-opacity:0.0; 
stroke:#000000; stroke-width:39.3701; stroke-opacity:1; 
stroke-linecap:round; stroke-linejoin:round;">
</g>
<g style="fill:#000000; fill-opacity:0.0; 
stroke:#000000; stroke-width:59.0551; stroke-opacity:1; 
stroke-linecap:round; stroke-linejoin:round;">
<path d="M23622 77955
L23622 78742
" />
</g>
<g style="fill:#000000; fill-opacity:0.0; 
stroke:#000000; stroke-width:39.3701; stroke-opacity:1; 
stroke-linecap:round; stroke-linejoin:round;">
</g>
<g style="fill:#000000; fill-opacity:0.0; 
stroke:#000000; stroke-width:59.0551; stroke-opacity:1; 
stroke-linecap:round; stroke-linejoin:round;">
<path d="M43307 77955
L43307 78742
" />
</g>
<g style="fill:#000000; fill-opacity:0.0; 
stroke:#000000; stroke-width:39.3701; stroke-opacity:1; 
stroke-linecap:round; stroke-linejoin:round;">
</g>
<g style="fill:#000000; fill-opacity:0.0; 
stroke:#000000; stroke-width:59.0551; stroke-opacity:1; 
stroke-linecap:round; stroke-linejoin:round;">
<path d="M62992 77955
L62992 78742
" />
</g>
<g style="fill:#000000; fill-opacity:0.0; 
stroke:#000000; stroke-width:39.3701; stroke-opacity:1; 
stroke-linecap:round; stroke-linejoin:round;">
</g>
<g style="fill:#000000; fill-opacity:0.0; 
stroke:#000000; stroke-width:59.0551; stroke-opacity:1; 
stroke-linecap:round; stroke-linejoin:round;">
<path d="M82677 77955
L82677 78742
" />
</g>
<g style="fill:#000000; fill-opacity:0.0; 
stroke:#000000; stroke-width:39.3701; stroke-opacity:1; 
stroke-linecap:round; stroke-linejoin:round;">
</g>
<g style="fill:#000000; fill-opacity:0.0; 
stroke:#000000; stroke-width:59.0551; stroke-opacity:1; 
stroke-linecap:round; stroke-linejoin:round;">
<path d="M102362 77955
L102362 78742
" />
</g>
<g style="fill:#000000; fill-opacity:0.0; 
stroke:#000000; stroke-width:39.3701; stroke-opacity:1; 
stroke-linecap:round; stroke-linejoin:round;">
</g>
<g style="fill:#000000; fill-opacity:0.0; 
stroke:#000000; stroke-width:59.0551; stroke-opacity:1; 
stroke-linecap:round; stroke-linejoin:round;">
<path d="M14169 78580
L13877 78580
" />
<path d="M14023 78580
L14023 78069
L13974 78142
L13925 78190
L13877 78215
" />
</g>
<g style="fill:#000000; fill-opacity:0.0; 
stroke:#000000; stroke-width:39.3701; stroke-opacity:1; 
stroke-linecap:round; stroke-linejoin:round;">
</g>
<g style="fill:#000000; fill-opacity:0.0; 
stroke:#000000; stroke-width:59.0551; stroke-opacity:1; 
stroke-linecap:round; stroke-linejoin:round;">
<path d="M33562 78117
L33586 78093
L33635 78069
L33757 78069
L33805 78093
L33830 78117
L33854 78166
L33854 78215
L33830 78288
L33537 78580
L33854 78580
" />
</g>
<g style="fill:#000000; fill-opacity:0.0; 
stroke:#000000; stroke-width:39.3701; stroke-opacity:1; 
stroke-linecap:round; stroke-linejoin:round;">
</g>
<g style="fill:#000000; fill-opacity:0.0; 
stroke:#000000; stroke-width:59.0551; stroke-opacity:1; 
stroke-linecap:round; stroke-linejoin:round;">
<path d="M53222 78069
L53539 78069
L53368 78263
L53442 78263
L53490 78288
L53515 78312
L53539 78361
L53539 78483
L53515 78532
L53490 78556
L53442 78580
L53295 78580
L53247 78556
L53222 78532
" />
</g>
<g style="fill:#000000; fill-opacity:0.0; 
stroke:#000000; stroke-width:39.3701; stroke-opacity:1; 
stroke-linecap:round; stroke-linejoin:round;">
</g>
<g style="fill:#000000; fill-opacity:0.0; 
stroke:#000000; stroke-width:59.0551; stroke-opacity:1; 
stroke-linecap:round; stroke-linejoin:round;">
<path d="M73175 78239
L73175 78580
" />
<path d="M73053 78044
L72932 78410
L73248 78410
" />
</g>
<g style="fill:#000000; fill-opacity:0.0; 
stroke:#000000; stroke-width:39.3701; stroke-opacity:1; 
stroke-linecap:round; stroke-linejoin:round;">
</g>
<g style="fill:#000000; fill-opacity:0.0; 
stroke:#000000; stroke-width:59.0551; stroke-opacity:1; 
stroke-linecap:round; stroke-linejoin:round;">
<path d="M92885 78069
L92641 78069
L92617 78312
L92641 78288
L92690 78263
L92812 78263
L92860 78288
L92885 78312
L92909 78361
L92909 78483
L92885 78532
L92860 78556
L92812 78580
L92690 78580
L92641 78556
L92617 78532
" />
</g>
<g style="fill:#000000; fill-opacity:0.0; 
stroke:#000000; stroke-width:39.3701; stroke-opacity:1; 
stroke-linecap:round; stroke-linejoin:round;">
</g>
<g style="fill:#000000; fill-opacity:0.0; 
stroke:#000000; stroke-width:59.0551; stroke-opacity:1; 
stroke-linecap:round; stroke-linejoin:round;">
<path d="M112545 78069
L112448 78069
L112399 78093
L112375 78117
L112326 78190
L112302 78288
L112302 78483
L112326 78532
L112350 78556
L112399 78580
L112497 78580
L112545 78556
L112570 78532
L112594 78483
L112594 78361
L112570 78312
L112545 78288
L112497 78263
L112399 78263
L112350 78288
L112326 78312
L112302 78361
" />
</g>
<g style="fill:#000000; fill-opacity:0.0; 
stroke:#000000; stroke-width:39.3701; stroke-opacity:1; 
stroke-linecap:round; stroke-linejoin:round;">
</g>
<g style="fill:#000000; fill-opacity:0.0; 
stroke:#000000; stroke-width:59.0551; stroke-opacity:1; 
stroke-linecap:round; stroke-linejoin:round;">
<path d="M3937 23622
L4724 23622
" />
</g>
<g style="fill:#000000; fill-opacity:0.0; 
stroke:#000000; stroke-width:39.3701; stroke-opacity:1; 
stroke-linecap:round; stroke-linejoin:round;">
</g>
<g style="fill:#000000; fill-opacity:0.0; 
stroke:#000000; stroke-width:59.0551; stroke-opacity:1; 
stroke-linecap:round; stroke-linejoin:round;">
<path d="M3937 43307
L4724 43307
" />
</g>
<g style="fill:#000000; fill-opacity:0.0; 
stroke:#000000; stroke-width:39.3701; stroke-opacity:1; 
stroke-linecap:round; stroke-linejoin:round;">
</g>
<g style="fill:#000000; fill-opacity:0.0; 
stroke:#000000; stroke-width:59.0551; stroke-opacity:1; 
stroke-linecap:round; stroke-linejoin:round;">
<path d="M3937 62992
L4724 62992
" />
</g>
<g style="fill:#000000; fill-opacity:0.0; 
stroke:#000000; stroke-width:39.3701; stroke-opacity:1; 
stroke-linecap:round; stroke-linejoin:round;">
</g>
<g style="fill:#000000; fill-opacity:0.0; 
stroke:#000000; stroke-width:59.0551; stroke-opacity:1; 
stroke-linecap:round; stroke-linejoin:round;">
<path d="M4208 13864
L4452 13864
" />
<path d="M4160 14011
L4330 13499
L4501 14011
" />
</g>
<g style="fill:#000000; fill-opacity:0.0; 
stroke:#000000; stroke-width:39.3701; stroke-opacity:1; 
stroke-linecap:round; stroke-linejoin:round;">
</g>
<g style="fill:#000000; fill-opacity:0.0; 
stroke:#000000; stroke-width:59.0551; stroke-opacity:1; 
stroke-linecap:round; stroke-linejoin:round;">
<path d="M4367 33428
L4440 33452
L4464 33476
L4489 33525
L4489 33598
L4464 33647
L4440 33671
L4391 33696
L4196 33696
L4196 33184
L4367 33184
L4416 33208
L4440 33233
L4464 33281
L4464 33330
L4440 33379
L4416 33403
L4367 33428
L4196 33428
" />
</g>
<g style="fill:#000000; fill-opacity:0.0; 
stroke:#000000; stroke-width:39.3701; stroke-opacity:1; 
stroke-linecap:round; stroke-linejoin:round;">
</g>
<g style="fill:#000000; fill-opacity:0.0; 
stroke:#000000; stroke-width:59.0551; stroke-opacity:1; 
stroke-linecap:round; stroke-linejoin:round;">
<path d="M4489 53332
L4464 53356
L4391 53381
L4342 53381
L4269 53356
L4221 53308
L4196 53259
L4172 53161
L4172 53088
L4196 52991
L4221 52942
L4269 52893
L4342 52869
L4391 52869
L4464 52893
L4489 52918
" />
</g>
<g style="fill:#000000; fill-opacity:0.0; 
stroke:#000000; stroke-width:39.3701; stroke-opacity:1; 
stroke-linecap:round; stroke-linejoin:round;">
</g>
<g style="fill:#000000; fill-opacity:0.0; 
stroke:#000000; stroke-width:59.0551; stroke-opacity:1; 
stroke-linecap:round; stroke-linejoin:round;">
<path d="M4196 73066
L4196 72554
L4318 72554
L4391 72578
L4440 72627
L4464 72676
L4489 72773
L4489 72846
L4464 72944
L4440 72993
L4391 73041
L4318 73066
L4196 73066
" />
</g>
<g style="fill:#000000; fill-opacity:0.0; 
stroke:#000000; stroke-width:39.3701; stroke-opacity:1; 
stroke-linecap:round; stroke-linejoin:round;">
</g>
<g style="fill:#000000; fill-opacity:0.0; 
stroke:#000000; stroke-width:59.0551; stroke-opacity:1; 
stroke-linecap:round; stroke-linejoin:round;">
<path d="M112992 23622
L112205 23622
" />
</g>
<g style="fill:#000000; fill-opacity:0.0; 
stroke:#000000; stroke-width:39.3701; stroke-opacity:1; 
stroke-linecap:round; stroke-linejoin:round;">
</g>
<g style="fill:#000000; fill-opacity:0.0; 
stroke:#000000; stroke-width:59.0551; stroke-opacity:1; 
stroke-linecap:round; stroke-linejoin:round;">
<path d="M112992 43307
L112205 43307
" />
</g>
<g style="fill:#000000; fill-opacity:0.0; 
stroke:#000000; stroke-width:39.3701; stroke-opacity:1; 
stroke-linecap:round; stroke-linejoin:round;">
</g>
<g style="fill:#000000; fill-opacity:0.0; 
stroke:#000000; stroke-width:59.0551; stroke-opacity:1; 
stroke-linecap:round; stroke-linejoin:round;">
<path d="M112992 62992
L112205 62992
" />
</g>
<g style="fill:#000000; fill-opacity:0.0; 
stroke:#000000; stroke-width:39.3701; stroke-opacity:1; 
stroke-linecap:round; stroke-linejoin:round;">
</g>
<g style="fill:#000000; fill-opacity:0.0; 
stroke:#000000; stroke-width:59.0551; stroke-opacity:1; 
stroke-linecap:round; stroke-linejoin:round;">
<path d="M112477 13864
L112721 13864
" />
<path d="M112428 14011
L112599 13499
L112769 14011
" />
</g>
<g style="fill:#000000; fill-opacity:0.0; 
stroke:#000000; stroke-width:39.3701; stroke-opacity:1; 
stroke-linecap:round; stroke-linejoin:round;">
</g>
<g style="fill:#000000; fill-opacity:0.0; 
stroke:#000000; stroke-width:59.0551; stroke-opacity:1; 
stroke-linecap:round; stroke-linejoin:round;">
<path d="M112635 33428
L112708 33452
L112733 33476
L112757 33525
L112757 33598
L112733 33647
L112708 33671
L112660 33696
L112465 33696
L112465 33184
L112635 33184
L112684 33208
L112708 33233
L112733 33281
L112733 33330
L112708 33379
L112684 33403
L112635 33428
L112465 33428
" />
</g>
<g style="fill:#000000; fill-opacity:0.0; 
stroke:#000000; stroke-width:39.3701; stroke-opacity:1; 
stroke-linecap:round; stroke-linejoin:round;">
</g>
<g style="fill:#000000; fill-opacity:0.0; 
stroke:#000000; stroke-width:59.0551; stroke-opacity:1; 
stroke-linecap:round; stroke-linejoin:round;">
<path d="M112757 53332
L112733 53356
L112660 53381
L112611 53381
L112538 53356
L112489 53308
L112465 53259
L112440 53161
L112440 53088
L112465 52991
L112489 52942
L112538 52893
L112611 52869
L112660 52869
L112733 52893
L112757 52918
" />
</g>
<g style="fill:#000000; fill-opacity:0.0; 
stroke:#000000; stroke-width:39.3701; stroke-opacity:1; 
stroke-linecap:round; stroke-linejoin:round;">
</g>
<g style="fill:#000000; fill-opacity:0.0; 
stroke:#000000; stroke-width:59.0551; stroke-opacity:1; 
stroke-linecap:round; stroke-linejoin:round;">
<path d="M112465 73066
L112465 72554
L112587 72554
L112660 72578
L112708 72627
L112733 72676
L112757 72773
L112757 72846
L112733 72944
L112708 72993
L112660 73041
L112587 73066
L112465 73066
" />
</g>
<g style="fill:#000000; fill-opacity:0.0; 
stroke:#000000; stroke-width:39.3701; stroke-opacity:1; 
stroke-linecap:round; stroke-linejoin:round;">
</g>
<g style="fill:#000000; fill-opacity:0.0; 
stroke:#000000; stroke-width:59.0551; stroke-opacity:1; 
stroke-linecap:round; stroke-linejoin:round;">
<path d="M78881 76293
L78881 75703
L79022 75703
L79106 75731
L79162 75787
L79190 75843
L79219 75956
L79219 76040
L79190 76153
L79162 76209
L79106 76265
L79022 76293
L78881 76293
" />
<path d="M79725 76293
L79725 75984
L79697 75928
L79640 75899
L79528 75899
L79472 75928
" />
<path d="M79725 76265
L79669 76293
L79528 76293
L79472 76265
L79444 76209
L79444 76153
L79472 76096
L79528 76068
L79669 76068
L79725 76040
" />
<path d="M79922 75899
L80147 75899
" />
<path d="M80006 75703
L80006 76209
L80034 76265
L80090 76293
L80147 76293
" />
<path d="M80568 76265
L80512 76293
L80400 76293
L80343 76265
L80315 76209
L80315 75984
L80343 75928
L80400 75899
L80512 75899
L80568 75928
L80597 75984
L80597 76040
L80315 76096
" />
<path d="M80850 76237
L80878 76265
L80850 76293
L80822 76265
L80850 76237
L80850 76293
" />
<path d="M80850 75928
L80878 75956
L80850 75984
L80822 75956
L80850 75928
L80850 75984
" />
</g>
<g style="fill:#000000; fill-opacity:0.0; 
stroke:#000000; stroke-width:39.3701; stroke-opacity:1; 
stroke-linecap:round; stroke-linejoin:round;">
</g>
<g style="fill:#000000; fill-opacity:0.0; 
stroke:#000000; stroke-width:59.0551; stroke-opacity:1; 
stroke-linecap:round; stroke-linejoin:round;">
<path d="M69685 76577
L112205 76577
" />
</g>
<g style="fill:#000000; fill-opacity:0.0; 
stroke:#000000; stroke-width:39.3701; stroke-opacity:1; 
stroke-linecap:round; stroke-linejoin:round;">
</g>
<g style="fill:#000000; fill-opacity:0.0; 
stroke:#000000; stroke-width:59.0551; stroke-opacity:1; 
stroke-linecap:round; stroke-linejoin:round;">
<path d="M70220 77395
L70220 76805
" />
<path d="M70557 77395
L70304 77058
" />
<path d="M70557 76805
L70220 77142
" />
<path d="M70810 77395
L70810 77002
" />
<path d="M70810 76805
L70782 76833
L70810 76861
L70838 76833
L70810 76805
L70810 76861
" />
<path d="M71429 77339
L71401 77367
L71316 77395
L71260 77395
L71176 77367
L71120 77311
L71091 77255
L71063 77142
L71063 77058
L71091 76946
L71120 76889
L71176 76833
L71260 76805
L71316 76805
L71401 76833
L71429 76861
" />
<path d="M71935 77395
L71935 77086
L71907 77030
L71851 77002
L71738 77002
L71682 77030
" />
<path d="M71935 77367
L71879 77395
L71738 77395
L71682 77367
L71654 77311
L71654 77255
L71682 77199
L71738 77171
L71879 77171
L71935 77142
" />
<path d="M72469 77395
L72469 76805
" />
<path d="M72469 77367
L72413 77395
L72301 77395
L72244 77367
L72216 77339
L72188 77283
L72188 77114
L72216 77058
L72244 77030
L72301 77002
L72413 77002
L72469 77030
" />
<path d="M73201 77086
L73397 77086
" />
<path d="M73482 77395
L73201 77395
L73201 76805
L73482 76805
" />
<path d="M73735 77339
L73763 77367
L73735 77395
L73707 77367
L73735 77339
L73735 77395
" />
<path d="M74016 77395
L74016 76805
L74157 76805
L74241 76833
L74297 76889
L74325 76946
L74354 77058
L74354 77142
L74325 77255
L74297 77311
L74241 77367
L74157 77395
L74016 77395
" />
<path d="M74607 77339
L74635 77367
L74607 77395
L74579 77367
L74607 77339
L74607 77395
" />
<path d="M74860 77227
L75141 77227
" />
<path d="M74804 77395
L75000 76805
L75197 77395
" />
<path d="M75394 77339
L75422 77367
L75394 77395
L75366 77367
L75394 77339
L75394 77395
" />
<path d="M76575 77395
L76575 76805
" />
<path d="M76631 77171
L76800 77395
" />
<path d="M76800 77002
L76575 77227
" />
<path d="M77053 77395
L77053 77002
" />
<path d="M77053 76805
L77025 76833
L77053 76861
L77081 76833
L77053 76805
L77053 76861
" />
<path d="M77588 77367
L77531 77395
L77419 77395
L77363 77367
L77334 77339
L77306 77283
L77306 77114
L77334 77058
L77363 77030
L77419 77002
L77531 77002
L77588 77030
" />
<path d="M78094 77395
L78094 77086
L78066 77030
L78009 77002
L77897 77002
L77841 77030
" />
<path d="M78094 77367
L78037 77395
L77897 77395
L77841 77367
L77813 77311
L77813 77255
L77841 77199
L77897 77171
L78037 77171
L78094 77142
" />
<path d="M78628 77395
L78628 76805
" />
<path d="M78628 77367
L78572 77395
L78459 77395
L78403 77367
L78375 77339
L78347 77283
L78347 77114
L78375 77058
L78403 77030
L78459 77002
L78572 77002
L78628 77030
" />
<path d="M79612 77002
L79612 77395
" />
<path d="M79472 76777
L79331 77199
L79697 77199
" />
<path d="M79922 77339
L79950 77367
L79922 77395
L79894 77367
L79922 77339
L79922 77395
" />
<path d="M80315 76805
L80372 76805
L80428 76833
L80456 76861
L80484 76917
L80512 77030
L80512 77171
L80484 77283
L80456 77339
L80428 77367
L80372 77395
L80315 77395
L80259 77367
L80231 77339
L80203 77283
L80175 77171
L80175 77030
L80203 76917
L80231 76861
L80259 76833
L80315 76805
" />
<path d="M80765 77339
L80793 77367
L80765 77395
L80737 77367
L80765 77339
L80765 77395
" />
<path d="M81328 76805
L81046 76805
L81018 77086
L81046 77058
L81103 77030
L81243 77030
L81300 77058
L81328 77086
L81356 77142
L81356 77283
L81328 77339
L81300 77367
L81243 77395
L81103 77395
L81046 77367
L81018 77339
" />
</g>
<g style="fill:#000000; fill-opacity:0.0; 
stroke:#000000; stroke-width:39.3701; stroke-opacity:1; 
stroke-linecap:round; stroke-linejoin:round;">
</g>
<g style="fill:#000000; fill-opacity:0.0; 
stroke:#000000; stroke-width:59.0551; stroke-opacity:1; 
stroke-linecap:round; stroke-linejoin:round;">
<path d="M69685 75396
L112205 75396
" />
</g>
<g style="fill:#000000; fill-opacity:0.0; 
stroke:#000000; stroke-width:39.3701; stroke-opacity:1; 
stroke-linecap:round; stroke-linejoin:round;">
</g>
<g style="fill:#000000; fill-opacity:0.0; 
stroke:#000000; stroke-width:118.11; stroke-opacity:1; 
stroke-linecap:round; stroke-linejoin:round;">
<path d="M104022 76293
L103825 76012
" />
<path d="M103684 76293
L103684 75703
L103909 75703
L103965 75731
L103994 75759
L104022 75815
L104022 75899
L103994 75956
L103965 75984
L103909 76012
L103684 76012
" />
<path d="M104500 76265
L104444 76293
L104331 76293
L104275 76265
L104247 76209
L104247 75984
L104275 75928
L104331 75899
L104444 75899
L104500 75928
L104528 75984
L104528 76040
L104247 76096
" />
<path d="M104725 75899
L104865 76293
L105006 75899
" />
<path d="M105231 76237
L105259 76265
L105231 76293
L105203 76265
L105231 76237
L105231 76293
" />
<path d="M105231 75928
L105259 75956
L105231 75984
L105203 75956
L105231 75928
L105231 75984
" />
</g>
<g style="fill:#000000; fill-opacity:0.0; 
stroke:#000000; stroke-width:39.3701; stroke-opacity:1; 
stroke-linecap:round; stroke-linejoin:round;">
</g>
<g style="fill:#000000; fill-opacity:0.0; 
stroke:#000000; stroke-width:59.0551; stroke-opacity:1; 
stroke-linecap:round; stroke-linejoin:round;">
<path d="M70192 76265
L70276 76293
L70417 76293
L70473 76265
L70501 76237
L70529 76181
L70529 76124
L70501 76068
L70473 76040
L70417 76012
L70304 75984
L70248 75956
L70220 75928
L70192 75871
L70192 75815
L70220 75759
L70248 75731
L70304 75703
L70445 75703
L70529 75731
" />
<path d="M70782 76293
L70782 75899
" />
<path d="M70782 75703
L70754 75731
L70782 75759
L70810 75731
L70782 75703
L70782 75759
" />
<path d="M71007 75899
L71316 75899
L71007 76293
L71316 76293
" />
<path d="M71766 76265
L71710 76293
L71598 76293
L71541 76265
L71513 76209
L71513 75984
L71541 75928
L71598 75899
L71710 75899
L71766 75928
L71795 75984
L71795 76040
L71513 76096
" />
<path d="M72048 76237
L72076 76265
L72048 76293
L72019 76265
L72048 76237
L72048 76293
" />
<path d="M72048 75928
L72076 75956
L72048 75984
L72019 75956
L72048 75928
L72048 75984
" />
<path d="M72751 76124
L73032 76124
" />
<path d="M72694 76293
L72891 75703
L73088 76293
" />
<path d="M73538 75899
L73538 76293
" />
<path d="M73397 75674
L73257 76096
L73622 76096
" />
</g>
<g style="fill:#000000; fill-opacity:0.0; 
stroke:#000000; stroke-width:39.3701; stroke-opacity:1; 
stroke-linecap:round; stroke-linejoin:round;">
</g>
<g style="fill:#000000; fill-opacity:0.0; 
stroke:#000000; stroke-width:59.0551; stroke-opacity:1; 
stroke-linecap:round; stroke-linejoin:round;">
<path d="M103684 77395
L103684 76805
" />
<path d="M104219 77395
L104219 76805
" />
<path d="M104219 77367
L104162 77395
L104050 77395
L103994 77367
L103965 77339
L103937 77283
L103937 77114
L103965 77058
L103994 77030
L104050 77002
L104162 77002
L104219 77030
" />
<path d="M104500 77339
L104528 77367
L104500 77395
L104472 77367
L104500 77339
L104500 77395
" />
<path d="M104500 77030
L104528 77058
L104500 77086
L104472 77058
L104500 77030
L104500 77086
" />
<path d="M105540 77395
L105203 77395
" />
<path d="M105372 77395
L105372 76805
L105315 76889
L105259 76946
L105203 76974
" />
<path d="M106215 76777
L105709 77536
" />
<path d="M106721 77395
L106384 77395
" />
<path d="M106553 77395
L106553 76805
L106496 76889
L106440 76946
L106384 76974
" />
</g>
<g style="fill:#000000; fill-opacity:0.0; 
stroke:#000000; stroke-width:39.3701; stroke-opacity:1; 
stroke-linecap:round; stroke-linejoin:round;">
</g>
<g style="fill:#000000; fill-opacity:0.0; 
stroke:#000000; stroke-width:59.0551; stroke-opacity:1; 
stroke-linecap:round; stroke-linejoin:round;">
<path d="M69685 73821
L112205 73821
" />
</g>
<g style="fill:#000000; fill-opacity:0.0; 
stroke:#000000; stroke-width:39.3701; stroke-opacity:1; 
stroke-linecap:round; stroke-linejoin:round;">
</g>
<g style="fill:#000000; fill-opacity:0.0; 
stroke:#000000; stroke-width:157.48; stroke-opacity:1; 
stroke-linecap:round; stroke-linejoin:round;">
<path d="M70257 74099
L70707 74099
" />
<path d="M70384 74886
L70482 74099
" />
<path d="M70871 74886
L70937 74361
" />
<path d="M70970 74099
L70927 74136
L70960 74174
L71002 74136
L70970 74099
L70960 74174
" />
<path d="M71199 74361
L71499 74361
" />
<path d="M71345 74099
L71260 74774
L71288 74849
L71359 74886
L71434 74886
" />
<path d="M71809 74886
L71738 74849
L71710 74774
L71795 74099
" />
<path d="M72413 74849
L72334 74886
L72184 74886
L72113 74849
L72085 74774
L72123 74474
L72169 74399
L72249 74361
L72399 74361
L72469 74399
L72498 74474
L72488 74549
L72104 74624
" />
<path d="M72793 74811
L72826 74849
L72783 74886
L72751 74849
L72793 74811
L72783 74886
" />
<path d="M72844 74399
L72877 74436
L72835 74474
L72802 74436
L72844 74399
L72835 74474
" />
</g>
<g style="fill:#000000; fill-opacity:0.0; 
stroke:#000000; stroke-width:39.3701; stroke-opacity:1; 
stroke-linecap:round; stroke-linejoin:round;">
</g>
<g style="fill:#000000; fill-opacity:0.0; 
stroke:#000000; stroke-width:59.0551; stroke-opacity:1; 
stroke-linecap:round; stroke-linejoin:round;">
<path d="M70417 73070
L70220 73070
" />
<path d="M70220 73380
L70220 72789
L70501 72789
" />
<path d="M70726 73380
L70726 72986
" />
<path d="M70726 72789
L70698 72817
L70726 72845
L70754 72817
L70726 72789
L70726 72845
" />
<path d="M71091 73380
L71035 73352
L71007 73295
L71007 72789
" />
<path d="M71541 73352
L71485 73380
L71373 73380
L71316 73352
L71288 73295
L71288 73070
L71316 73014
L71373 72986
L71485 72986
L71541 73014
L71570 73070
L71570 73127
L71288 73183
" />
<path d="M71823 73323
L71851 73352
L71823 73380
L71795 73352
L71823 73323
L71823 73380
" />
<path d="M71823 73014
L71851 73042
L71823 73070
L71795 73042
L71823 73014
L71823 73070
" />
<path d="M72554 73380
L72554 72789
L72751 73211
L72947 72789
L72947 73380
" />
<path d="M73229 73380
L73229 72986
" />
<path d="M73229 72789
L73201 72817
L73229 72845
L73257 72817
L73229 72789
L73229 72845
" />
<path d="M73510 72986
L73510 73380
" />
<path d="M73510 73042
L73538 73014
L73594 72986
L73679 72986
L73735 73014
L73763 73070
L73763 73380
" />
<path d="M74044 73380
L74044 72986
" />
<path d="M74044 72789
L74016 72817
L74044 72845
L74072 72817
L74044 72789
L74044 72845
" />
<path d="M74325 73380
L74325 72789
L74466 72789
L74550 72817
L74607 72874
L74635 72930
L74663 73042
L74663 73127
L74635 73239
L74607 73295
L74550 73352
L74466 73380
L74325 73380
" />
<path d="M75000 73380
L74944 73352
L74916 73323
L74888 73267
L74888 73099
L74916 73042
L74944 73014
L75000 72986
L75085 72986
L75141 73014
L75169 73042
L75197 73099
L75197 73267
L75169 73323
L75141 73352
L75085 73380
L75000 73380
" />
<path d="M75394 73380
L75703 72986
" />
<path d="M75394 72986
L75703 73380
" />
<path d="M75928 73323
L75956 73352
L75928 73380
L75900 73352
L75928 73323
L75928 73380
" />
<path d="M76210 73380
L76210 72789
" />
<path d="M76266 73155
L76435 73380
" />
<path d="M76435 72986
L76210 73211
" />
<path d="M76688 73380
L76688 72986
" />
<path d="M76688 72789
L76660 72817
L76688 72845
L76716 72817
L76688 72789
L76688 72845
" />
<path d="M77222 73352
L77166 73380
L77053 73380
L76997 73352
L76969 73323
L76941 73267
L76941 73099
L76969 73042
L76997 73014
L77053 72986
L77166 72986
L77222 73014
" />
<path d="M77728 73380
L77728 73070
L77700 73014
L77644 72986
L77531 72986
L77475 73014
" />
<path d="M77728 73352
L77672 73380
L77531 73380
L77475 73352
L77447 73295
L77447 73239
L77475 73183
L77531 73155
L77672 73155
L77728 73127
" />
<path d="M78262 73380
L78262 72789
" />
<path d="M78262 73352
L78206 73380
L78094 73380
L78037 73352
L78009 73323
L77981 73267
L77981 73099
L78009 73042
L78037 73014
L78094 72986
L78206 72986
L78262 73014
" />
<path d="M78403 73436
L78853 73436
" />
<path d="M78994 72986
L78994 73577
" />
<path d="M78994 73014
L79050 72986
L79162 72986
L79219 73014
L79247 73042
L79275 73099
L79275 73267
L79247 73323
L79219 73352
L79162 73380
L79050 73380
L78994 73352
" />
<path d="M79781 73352
L79725 73380
L79612 73380
L79556 73352
L79528 73323
L79500 73267
L79500 73099
L79528 73042
L79556 73014
L79612 72986
L79725 72986
L79781 73014
" />
<path d="M80034 73380
L80034 72789
" />
<path d="M80034 73014
L80090 72986
L80203 72986
L80259 73014
L80287 73042
L80315 73099
L80315 73267
L80287 73323
L80259 73352
L80203 73380
L80090 73380
L80034 73352
" />
</g>
<g style="fill:#000000; fill-opacity:0.0; 
stroke:#000000; stroke-width:39.3701; stroke-opacity:1; 
stroke-linecap:round; stroke-linejoin:round;">
</g>
<g style="fill:#000000; fill-opacity:0.0; 
stroke:#000000; stroke-width:59.0551; stroke-opacity:1; 
stroke-linecap:round; stroke-linejoin:round;">
<path d="M69685 71459
L112205 71459
" />
</g>
<g style="fill:#000000; fill-opacity:0.0; 
stroke:#000000; stroke-width:39.3701; stroke-opacity:1; 
stroke-linecap:round; stroke-linejoin:round;">
</g>
<g style="fill:#000000; fill-opacity:0.0; 
stroke:#000000; stroke-width:59.0551; stroke-opacity:1; 
stroke-linecap:round; stroke-linejoin:round;">
<path d="M70192 72289
L70276 72317
L70417 72317
L70473 72289
L70501 72260
L70529 72204
L70529 72148
L70501 72092
L70473 72064
L70417 72036
L70304 72007
L70248 71979
L70220 71951
L70192 71895
L70192 71839
L70220 71782
L70248 71754
L70304 71726
L70445 71726
L70529 71754
" />
<path d="M70782 72317
L70782 71726
" />
<path d="M71035 72317
L71035 72007
L71007 71951
L70951 71923
L70867 71923
L70810 71951
L70782 71979
" />
<path d="M71541 72289
L71485 72317
L71373 72317
L71316 72289
L71288 72232
L71288 72007
L71316 71951
L71373 71923
L71485 71923
L71541 71951
L71570 72007
L71570 72064
L71288 72120
" />
<path d="M72048 72289
L71991 72317
L71879 72317
L71823 72289
L71795 72232
L71795 72007
L71823 71951
L71879 71923
L71991 71923
L72048 71951
L72076 72007
L72076 72064
L71795 72120
" />
<path d="M72244 71923
L72469 71923
" />
<path d="M72329 71726
L72329 72232
L72357 72289
L72413 72317
L72469 72317
" />
<path d="M72666 72260
L72694 72289
L72666 72317
L72638 72289
L72666 72260
L72666 72317
" />
<path d="M72666 71951
L72694 71979
L72666 72007
L72638 71979
L72666 71951
L72666 72007
" />
</g>
<g style="fill:#000000; fill-opacity:0.0; 
stroke:#000000; stroke-width:39.3701; stroke-opacity:1; 
stroke-linecap:round; stroke-linejoin:round;">
</g>
<g style="fill:#000000; fill-opacity:0.0; 
stroke:#000000; stroke-width:59.0551; stroke-opacity:1; 
stroke-linecap:round; stroke-linejoin:round;">
<path d="M77559 75396
L77559 76577
" />
</g>
<g style="fill:#000000; fill-opacity:0.0; 
stroke:#000000; stroke-width:39.3701; stroke-opacity:1; 
stroke-linecap:round; stroke-linejoin:round;">
</g>
<g style="fill:#000000; fill-opacity:0.0; 
stroke:#000000; stroke-width:59.0551; stroke-opacity:1; 
stroke-linecap:round; stroke-linejoin:round;">
<path d="M102756 75396
L102756 77955
" />
</g>
<g style="fill:#008484; fill-opacity:0.0; 
stroke:#008484; stroke-width:59.0551; stroke-opacity:1; 
stroke-linecap:round; stroke-linejoin:round;">
</g>
<g style="fill:#008484; fill-opacity:0.0; 
stroke:#008484; stroke-width:118.11; stroke-opacity:1; 
stroke-linecap:round; stroke-linejoin:round;">
<path d="M68175 44596
L68470 44085
L68665 44197
L68700 44250
L68710 44288
L68706 44351
L68664 44424
L68612 44459
L68573 44469
L68511 44465
L68316 44353
" />
<path d="M69007 45011
L68969 45022
L68881 45004
L68833 44976
L68774 44909
L68753 44832
L68757 44770
L68789 44658
L68831 44585
L68912 44502
L68964 44467
L69041 44447
L69128 44464
L69177 44492
L69236 44559
L69246 44597
" />
<path d="M69523 45017
L69582 45084
L69593 45122
L69589 45185
L69547 45258
L69494 45293
L69456 45303
L69393 45299
L69198 45187
L69493 44675
L69664 44774
L69698 44826
L69709 44865
L69705 44927
L69677 44976
L69624 45011
L69586 45021
L69523 45017
L69353 44919
" />
<path d="M70099 45707
L70394 45195
L70516 45266
L70575 45332
L70596 45409
L70592 45472
L70560 45583
L70518 45656
L70437 45740
L70385 45774
L70308 45795
L70221 45777
L70099 45707
" />
<path d="M70820 46090
L70757 46087
L70659 46030
L70625 45978
L70628 45915
L70741 45720
L70793 45686
L70856 45689
L70954 45746
L70988 45798
L70984 45861
L70956 45910
L70685 45818
" />
<path d="M71039 46217
L71073 46269
L71171 46326
L71234 46329
L71286 46295
L71300 46270
L71304 46208
L71269 46155
L71196 46113
L71161 46060
L71165 45998
L71179 45973
L71232 45939
L71295 45942
L71368 45985
L71402 46037
" />
<path d="M71463 46494
L71660 46153
" />
<path d="M71758 45983
L71720 45993
L71730 46032
L71769 46021
L71758 45983
L71730 46032
" />
<path d="M72123 46421
L71884 46835
L71831 46869
L71793 46879
L71730 46876
L71657 46834
L71622 46781
" />
<path d="M71940 46737
L71877 46733
L71780 46677
L71745 46625
L71735 46586
L71738 46523
L71823 46377
L71875 46343
L71914 46332
L71976 46336
L72074 46392
L72109 46445
" />
<path d="M72366 46561
L72169 46902
" />
<path d="M72338 46610
L72376 46600
L72439 46603
L72512 46646
L72547 46698
L72543 46761
L72388 47029
" />
<path d="M72841 47257
L72778 47254
L72681 47197
L72646 47145
L72650 47082
L72762 46887
L72815 46853
L72878 46856
L72975 46913
L73010 46965
L73006 47028
L72978 47077
L72706 46985
" />
<path d="M73290 47549
L73585 47037
" />
<path d="M73304 47525
L73241 47521
L73143 47465
L73109 47412
L73098 47374
L73102 47311
L73187 47165
L73239 47130
L73278 47120
L73340 47124
L73438 47180
L73472 47232
" />
<path d="M73923 47914
L74218 47403
" />
<path d="M74106 47598
L74168 47602
L74266 47658
L74300 47710
L74311 47749
L74307 47812
L74223 47958
L74170 47992
L74132 48003
L74069 47999
L73971 47943
L73937 47890
" />
<path d="M74534 47813
L74459 48224
" />
<path d="M74777 47953
L74459 48224
L74340 48317
L74301 48328
L74238 48324
" />
<path d="M74803 48358
L74814 48396
L74775 48407
L74765 48368
L74803 48358
L74775 48407
" />
<path d="M74958 48090
L74968 48128
L74930 48139
L74920 48100
L74958 48090
L74930 48139
" />
<path d="M68117 45007
L67299 45412
" />
<path d="M68394 45427
L68197 45768
" />
<path d="M68175 45300
L68020 45568
L68016 45631
L68051 45684
L68124 45726
L68187 45729
L68225 45719
" />
<path d="M69115 45584
L68297 45988
" />
<path d="M69198 45664
L69491 45833
" />
<path d="M69049 46260
L69345 45749
" />
<path d="M69366 46443
L69661 45931
" />
<path d="M69585 46569
L69740 46301
L69743 46239
L69709 46186
L69636 46144
L69573 46140
L69535 46151
" />
<path d="M70048 46836
L70202 46569
L70206 46506
L70172 46453
L70074 46397
L70011 46393
" />
<path d="M70062 46812
L69999 46808
L69877 46738
L69843 46686
L69846 46623
L69875 46574
L69927 46539
L69990 46543
L70112 46614
L70174 46617
" />
<path d="M70415 46594
L70610 46706
" />
<path d="M70587 46466
L70333 46904
L70330 46967
L70364 47019
L70413 47047
" />
<path d="M70696 46951
L71086 47176
" />
<path d="M71537 47631
L71499 47642
L71412 47624
L71363 47596
L71304 47529
L71283 47452
L71287 47390
L71319 47278
L71361 47205
L71442 47122
L71494 47087
L71571 47067
L71658 47084
L71707 47112
L71766 47179
L71776 47217
" />
<path d="M71947 47933
L72102 47665
L72106 47603
L72071 47550
L71974 47494
L71911 47490
" />
<path d="M71961 47909
L71899 47905
L71777 47835
L71742 47782
L71746 47720
L71774 47671
L71827 47636
L71889 47640
L72011 47710
L72074 47714
" />
<path d="M72388 47733
L72191 48074
" />
<path d="M72360 47782
L72398 47771
L72461 47775
L72534 47817
L72569 47870
L72565 47932
L72410 48200
" />
<path d="M72873 48468
L73027 48200
L73031 48137
L72997 48084
L72899 48028
L72836 48024
" />
<path d="M72887 48443
L72824 48439
L72702 48369
L72668 48317
L72671 48254
L72700 48205
L72752 48171
L72815 48174
L72937 48245
L72999 48248
" />
<path d="M73336 48735
L73631 48223
" />
<path d="M73350 48710
L73287 48707
L73189 48650
L73155 48598
L73144 48559
L73148 48497
L73233 48351
L73285 48316
L73323 48306
L73386 48309
L73484 48366
L73518 48418
" />
<path d="M73579 48875
L73776 48534
" />
<path d="M73874 48364
L73836 48374
L73846 48413
L73885 48402
L73874 48364
L73846 48413
" />
<path d="M74042 49142
L74196 48875
L74200 48812
L74166 48759
L74068 48703
L74005 48699
" />
<path d="M74056 49118
L73993 49114
L73871 49044
L73837 48992
L73840 48929
L73869 48880
L73921 48845
L73984 48849
L74106 48919
L74168 48923
" />
<path d="M74482 48942
L74285 49283
" />
<path d="M74454 48991
L74492 48981
L74555 48984
L74628 49026
L74663 49079
L74659 49142
L74505 49410
" />
</g>
<g style="fill:#008484; fill-opacity:0.0; 
stroke:#008484; stroke-width:150; stroke-opacity:1; 
stroke-linecap:round; stroke-linejoin:round;">
<path d="M69575 48310
L68969 47960
" />
<path d="M73299 50460
L72693 50110
" />
<path d="M72949 51066
L73299 50460
" />
<path d="M70799 54790
L71149 54184
" />
<path d="M70193 54440
L70799 54790
" />
<path d="M66469 52290
L67075 52640
" />
<path d="M66819 51684
L66469 52290
" />
<path d="M68969 47960
L68619 48566
" />
<path d="M66469 52290
L66819 51684
" />
<path d="M68619 48566
L68969 47960
" />
<path d="M68969 47960
L69575 48310
" />
<path d="M72693 50110
L73299 50460
" />
<path d="M73299 50460
L72949 51066
" />
<path d="M71149 54184
L70799 54790
" />
<path d="M70799 54790
L70193 54440
" />
<path d="M67075 52640
L66469 52290
" />
</g>
<g style="fill:#008484; fill-opacity:0.0; 
stroke:#008484; stroke-width:78.7402; stroke-opacity:1; 
stroke-linecap:round; stroke-linejoin:round;">
<path d="M43096 44106
L40812 44106
" />
<path d="M43096 45051
L43096 44106
" />
<path d="M40812 45051
L43096 45051
" />
<path d="M40842 45051
L40842 44106
" />
<path d="M40891 45051
L40891 44106
" />
<path d="M40802 44106
L40802 45051
" />
<path d="M40960 45051
L40960 44106
" />
<path d="M41029 45051
L41029 44106
" />
<path d="M41098 45051
L41098 44106
" />
<path d="M35361 31215
L33078 31215
" />
<path d="M35361 32160
L35361 31215
" />
<path d="M33078 32160
L35361 32160
" />
<path d="M33107 32160
L33107 31215
" />
<path d="M33156 32160
L33156 31215
" />
<path d="M33068 31215
L33068 32160
" />
<path d="M33225 32160
L33225 31215
" />
<path d="M33294 32160
L33294 31215
" />
<path d="M33363 32160
L33363 31215
" />
<path d="M48156 29347
L50440 29347
" />
<path d="M48156 28403
L48156 29347
" />
<path d="M50440 28403
L48156 28403
" />
<path d="M50410 28403
L50410 29347
" />
<path d="M50361 28403
L50361 29347
" />
<path d="M50450 29347
L50450 28403
" />
<path d="M50292 28403
L50292 29347
" />
<path d="M50223 28403
L50223 29347
" />
<path d="M50155 28403
L50155 29347
" />
<path d="M52536 24491
L52536 26775
" />
<path d="M53481 24491
L52536 24491
" />
<path d="M53481 26775
L53481 24491
" />
<path d="M53481 26745
L52536 26745
" />
<path d="M53481 26696
L52536 26696
" />
<path d="M52536 26785
L53481 26785
" />
<path d="M53481 26627
L52536 26627
" />
<path d="M53481 26558
L52536 26558
" />
<path d="M53481 26489
L52536 26489
" />
<path d="M57861 29340
L55578 29340
" />
<path d="M57861 30285
L57861 29340
" />
<path d="M55578 30285
L57861 30285
" />
<path d="M55607 30285
L55607 29340
" />
<path d="M55656 30285
L55656 29340
" />
<path d="M55568 29340
L55568 30285
" />
<path d="M55725 30285
L55725 29340
" />
<path d="M55794 30285
L55794 29340
" />
<path d="M55863 30285
L55863 29340
" />
<path d="M65361 30278
L63078 30278
" />
<path d="M65361 31222
L65361 30278
" />
<path d="M63078 31222
L65361 31222
" />
<path d="M63107 31222
L63107 30278
" />
<path d="M63156 31222
L63156 30278
" />
<path d="M63068 30278
L63068 31222
" />
<path d="M63225 31222
L63225 30278
" />
<path d="M63294 31222
L63294 30278
" />
<path d="M63363 31222
L63363 30278
" />
<path d="M35361 38715
L33078 38715
" />
<path d="M35361 39660
L35361 38715
" />
<path d="M33078 39660
L35361 39660
" />
<path d="M33107 39660
L33107 38715
" />
<path d="M33156 39660
L33156 38715
" />
<path d="M33068 38715
L33068 39660
" />
<path d="M33225 39660
L33225 38715
" />
<path d="M33294 39660
L33294 38715
" />
<path d="M33363 39660
L33363 38715
" />
<path d="M42861 36840
L40578 36840
" />
<path d="M42861 37785
L42861 36840
" />
<path d="M40578 37785
L42861 37785
" />
<path d="M40607 37785
L40607 36840
" />
<path d="M40656 37785
L40656 36840
" />
<path d="M40568 36840
L40568 37785
" />
<path d="M40725 37785
L40725 36840
" />
<path d="M40794 37785
L40794 36840
" />
<path d="M40863 37785
L40863 36840
" />
<path d="M50361 35903
L48078 35903
" />
<path d="M50361 36847
L50361 35903
" />
<path d="M48078 36847
L50361 36847
" />
<path d="M48107 36847
L48107 35903
" />
<path d="M48156 36847
L48156 35903
" />
<path d="M48068 35903
L48068 36847
" />
<path d="M48225 36847
L48225 35903
" />
<path d="M48294 36847
L48294 35903
" />
<path d="M48363 36847
L48363 35903
" />
<path d="M57861 36840
L55578 36840
" />
<path d="M57861 37785
L57861 36840
" />
<path d="M55578 37785
L57861 37785
" />
<path d="M55607 37785
L55607 36840
" />
<path d="M55656 37785
L55656 36840
" />
<path d="M55568 36840
L55568 37785
" />
<path d="M55725 37785
L55725 36840
" />
<path d="M55794 37785
L55794 36840
" />
<path d="M55863 37785
L55863 36840
" />
<path d="M65361 37778
L63078 37778
" />
<path d="M65361 38722
L65361 37778
" />
<path d="M63078 38722
L65361 38722
" />
<path d="M63107 38722
L63107 37778
" />
<path d="M63156 38722
L63156 37778
" />
<path d="M63068 37778
L63068 38722
" />
<path d="M63225 38722
L63225 37778
" />
<path d="M63294 38722
L63294 37778
" />
<path d="M63363 38722
L63363 37778
" />
<path d="M37536 41601
L37536 43884
" />
<path d="M38481 41601
L37536 41601
" />
<path d="M38481 43884
L38481 41601
" />
<path d="M38481 43855
L37536 43855
" />
<path d="M38481 43805
L37536 43805
" />
<path d="M37536 43894
L38481 43894
" />
<path d="M38481 43737
L37536 43737
" />
<path d="M38481 43668
L37536 43668
" />
<path d="M38481 43599
L37536 43599
" />
<path d="M50361 43403
L48078 43403
" />
<path d="M50361 44347
L50361 43403
" />
<path d="M48078 44347
L50361 44347
" />
<path d="M48107 44347
L48107 43403
" />
<path d="M48156 44347
L48156 43403
" />
<path d="M48068 43403
L48068 44347
" />
<path d="M48225 44347
L48225 43403
" />
<path d="M48294 44347
L48294 43403
" />
<path d="M48363 44347
L48363 43403
" />
<path d="M57861 44340
L55578 44340
" />
<path d="M57861 45285
L57861 44340
" />
<path d="M55578 45285
L57861 45285
" />
<path d="M55607 45285
L55607 44340
" />
<path d="M55656 45285
L55656 44340
" />
<path d="M55568 44340
L55568 45285
" />
<path d="M55725 45285
L55725 44340
" />
<path d="M55794 45285
L55794 44340
" />
<path d="M55863 45285
L55863 44340
" />
<path d="M65596 45278
L63312 45278
" />
<path d="M65596 46222
L65596 45278
" />
<path d="M63312 46222
L65596 46222
" />
<path d="M63342 46222
L63342 45278
" />
<path d="M63391 46222
L63391 45278
" />
<path d="M63302 45278
L63302 46222
" />
<path d="M63460 46222
L63460 45278
" />
<path d="M63529 46222
L63529 45278
" />
<path d="M63598 46222
L63598 45278
" />
<path d="M55818 48632
L55818 50915
" />
<path d="M56763 48632
L55818 48632
" />
<path d="M56763 50915
L56763 48632
" />
<path d="M56763 50886
L55818 50886
" />
<path d="M56763 50837
L55818 50837
" />
<path d="M55818 50925
L56763 50925
" />
<path d="M56763 50768
L55818 50768
" />
<path d="M56763 50699
L55818 50699
" />
<path d="M56763 50630
L55818 50630
" />
<path d="M59821 53548
L57615 52957
" />
<path d="M59576 54460
L59821 53548
" />
<path d="M57371 53869
L59576 54460
" />
<path d="M57399 53877
L57644 52964
" />
<path d="M57447 53890
L57691 52977
" />
<path d="M57606 52954
L57361 53867
" />
<path d="M57513 53908
L57758 52995
" />
<path d="M57580 53925
L57824 53013
" />
<path d="M57646 53943
L57891 53031
" />
<path d="M69200 54798
L67222 53657
" />
<path d="M68727 55617
L69200 54798
" />
<path d="M66750 54475
L68727 55617
" />
<path d="M66775 54490
L67248 53671
" />
<path d="M66818 54514
L67290 53696
" />
<path d="M67214 53652
L66741 54470
" />
<path d="M66878 54549
L67350 53730
" />
<path d="M66937 54583
L67410 53765
" />
<path d="M66997 54618
L67469 53799
" />
</g>
<g style="fill:#008484; fill-opacity:0.0; 
stroke:#008484; stroke-width:59.0551; stroke-opacity:1; 
stroke-linecap:round; stroke-linejoin:round;">
<path d="M54409 21685
L54232 21508
" />
<path d="M53070 21685
L53248 21508
" />
<path d="M53070 23496
L53248 23673
" />
<path d="M54409 23496
L54232 23673
" />
<path d="M54527 22984
L54133 23378
" />
<path d="M54133 23378
L53346 23378
" />
<path d="M53346 23378
L52952 22984
" />
<path d="M52952 22984
L52952 22197
" />
<path d="M52952 22197
L53346 21803
" />
<path d="M53346 21803
L54133 21803
" />
<path d="M54133 21803
L54527 22197
" />
<path d="M54527 22197
L54527 22984
" />
<path d="M52657 22984
L52657 22197
" />
<path d="M54232 21508
L53248 21508
" />
<path d="M54822 22984
L54822 22197
" />
<path d="M54232 23673
L53248 23673
" />
<circle cx="53740.2" cy="22591" r="393.701" /> 
</g>
<g style="fill:#008484; fill-opacity:0.0; 
stroke:#008484; stroke-width:150; stroke-opacity:1; 
stroke-linecap:round; stroke-linejoin:round;">
<path d="M62399 25891
L62399 21141
" />
<path d="M58619 25891
L62399 25891
" />
<path d="M58619 21141
L58619 25891
" />
<path d="M62399 21141
L62399 25891
" />
<path d="M62399 25891
L58619 25891
" />
<path d="M58619 25891
L58619 21141
" />
<path d="M45259 21469
L38259 21469
" />
<path d="M38259 21469
L38259 33469
" />
<path d="M38259 33469
L45259 33469
" />
<path d="M45259 33469
L45259 21469
" />
<path d="M39259 21469
L39259 22469
" />
<path d="M39259 22469
L38259 22469
" />
<path d="M36059 30437
L36759 30437
" />
<path d="M31759 25437
L32459 25437
" />
<path d="M36059 25437
L36759 25437
" />
<path d="M36759 25437
L36759 26137
" />
<path d="M36759 29737
L36759 30437
" />
<path d="M36759 30437
L36059 30437
" />
<path d="M32459 30437
L31759 30437
" />
<path d="M31759 30437
L31759 29737
" />
<path d="M31759 26137
L31759 25437
" />
<path d="M43559 28562
L44259 28562
" />
<path d="M39259 23562
L39959 23562
" />
<path d="M43559 23562
L44259 23562
" />
<path d="M44259 23562
L44259 24262
" />
<path d="M44259 27862
L44259 28562
" />
<path d="M44259 28562
L43559 28562
" />
<path d="M39959 28562
L39259 28562
" />
<path d="M39259 28562
L39259 27862
" />
<path d="M39259 24262
L39259 23562
" />
<path d="M51059 27625
L51759 27625
" />
<path d="M46759 22625
L47459 22625
" />
<path d="M51059 22625
L51759 22625
" />
<path d="M51759 22625
L51759 23325
" />
<path d="M51759 26925
L51759 27625
" />
<path d="M51759 27625
L51059 27625
" />
<path d="M47459 27625
L46759 27625
" />
<path d="M46759 27625
L46759 26925
" />
<path d="M46759 23325
L46759 22625
" />
<path d="M58559 28562
L59259 28562
" />
<path d="M54259 23562
L54959 23562
" />
<path d="M58559 23562
L59259 23562
" />
<path d="M59259 23562
L59259 24262
" />
<path d="M59259 27862
L59259 28562
" />
<path d="M59259 28562
L58559 28562
" />
<path d="M54959 28562
L54259 28562
" />
<path d="M54259 28562
L54259 27862
" />
<path d="M54259 24262
L54259 23562
" />
<path d="M66059 29500
L66759 29500
" />
<path d="M61759 24500
L62459 24500
" />
<path d="M66059 24500
L66759 24500
" />
<path d="M66759 24500
L66759 25200
" />
<path d="M66759 28800
L66759 29500
" />
<path d="M66759 29500
L66059 29500
" />
<path d="M62459 29500
L61759 29500
" />
<path d="M61759 29500
L61759 28800
" />
<path d="M61759 25200
L61759 24500
" />
<path d="M36059 37937
L36759 37937
" />
<path d="M31759 32937
L32459 32937
" />
<path d="M36059 32937
L36759 32937
" />
<path d="M36759 32937
L36759 33637
" />
<path d="M36759 37237
L36759 37937
" />
<path d="M36759 37937
L36059 37937
" />
<path d="M32459 37937
L31759 37937
" />
<path d="M31759 37937
L31759 37237
" />
<path d="M31759 33637
L31759 32937
" />
<path d="M43559 36062
L44259 36062
" />
<path d="M39259 31062
L39959 31062
" />
<path d="M43559 31062
L44259 31062
" />
<path d="M44259 31062
L44259 31762
" />
<path d="M44259 35362
L44259 36062
" />
<path d="M44259 36062
L43559 36062
" />
<path d="M39959 36062
L39259 36062
" />
<path d="M39259 36062
L39259 35362
" />
<path d="M39259 31762
L39259 31062
" />
<path d="M51059 35125
L51759 35125
" />
<path d="M46759 30125
L47459 30125
" />
<path d="M51059 30125
L51759 30125
" />
<path d="M51759 30125
L51759 30825
" />
<path d="M51759 34425
L51759 35125
" />
<path d="M51759 35125
L51059 35125
" />
<path d="M47459 35125
L46759 35125
" />
<path d="M46759 35125
L46759 34425
" />
<path d="M46759 30825
L46759 30125
" />
<path d="M58559 36062
L59259 36062
" />
<path d="M54259 31062
L54959 31062
" />
<path d="M58559 31062
L59259 31062
" />
<path d="M59259 31062
L59259 31762
" />
<path d="M59259 35362
L59259 36062
" />
<path d="M59259 36062
L58559 36062
" />
<path d="M54959 36062
L54259 36062
" />
<path d="M54259 36062
L54259 35362
" />
<path d="M54259 31762
L54259 31062
" />
<path d="M66059 37000
L66759 37000
" />
<path d="M61759 32000
L62459 32000
" />
<path d="M66059 32000
L66759 32000
" />
<path d="M66759 32000
L66759 32700
" />
<path d="M66759 36300
L66759 37000
" />
<path d="M66759 37000
L66059 37000
" />
<path d="M62459 37000
L61759 37000
" />
<path d="M61759 37000
L61759 36300
" />
<path d="M61759 32700
L61759 32000
" />
<path d="M36059 45437
L36759 45437
" />
<path d="M31759 40437
L32459 40437
" />
<path d="M36059 40437
L36759 40437
" />
<path d="M36759 40437
L36759 41137
" />
<path d="M36759 44737
L36759 45437
" />
<path d="M36759 45437
L36059 45437
" />
<path d="M32459 45437
L31759 45437
" />
<path d="M31759 45437
L31759 44737
" />
<path d="M31759 41137
L31759 40437
" />
<path d="M43559 43562
L44259 43562
" />
<path d="M39259 38562
L39959 38562
" />
<path d="M43559 38562
L44259 38562
" />
<path d="M44259 38562
L44259 39262
" />
<path d="M44259 42862
L44259 43562
" />
<path d="M44259 43562
L43559 43562
" />
<path d="M39959 43562
L39259 43562
" />
<path d="M39259 43562
L39259 42862
" />
<path d="M39259 39262
L39259 38562
" />
<path d="M51059 42625
L51759 42625
" />
<path d="M46759 37625
L47459 37625
" />
<path d="M51059 37625
L51759 37625
" />
<path d="M51759 37625
L51759 38325
" />
<path d="M51759 41925
L51759 42625
" />
<path d="M51759 42625
L51059 42625
" />
<path d="M47459 42625
L46759 42625
" />
<path d="M46759 42625
L46759 41925
" />
<path d="M46759 38325
L46759 37625
" />
<path d="M58559 43562
L59259 43562
" />
<path d="M54259 38562
L54959 38562
" />
<path d="M58559 38562
L59259 38562
" />
<path d="M59259 38562
L59259 39262
" />
<path d="M59259 42862
L59259 43562
" />
<path d="M59259 43562
L58559 43562
" />
<path d="M54959 43562
L54259 43562
" />
<path d="M54259 43562
L54259 42862
" />
<path d="M54259 39262
L54259 38562
" />
<path d="M66059 44500
L66759 44500
" />
<path d="M61759 39500
L62459 39500
" />
<path d="M66059 39500
L66759 39500
" />
<path d="M66759 39500
L66759 40200
" />
<path d="M66759 43800
L66759 44500
" />
<path d="M66759 44500
L66059 44500
" />
<path d="M62459 44500
L61759 44500
" />
<path d="M61759 44500
L61759 43800
" />
<path d="M61759 40200
L61759 39500
" />
<path d="M53871 52000
L54571 52000
" />
<path d="M49571 47000
L50271 47000
" />
<path d="M53871 47000
L54571 47000
" />
<path d="M54571 47000
L54571 47700
" />
<path d="M54571 51300
L54571 52000
" />
<path d="M54571 52000
L53871 52000
" />
<path d="M50271 52000
L49571 52000
" />
<path d="M49571 52000
L49571 51300
" />
<path d="M49571 47700
L49571 47000
" />
<path d="M61600 53318
L62277 53499
" />
<path d="M58741 47376
L59417 47557
" />
<path d="M62895 48489
L63571 48670
" />
<path d="M63571 48670
L63390 49346
" />
<path d="M62458 52823
L62277 53499
" />
<path d="M62277 53499
L61600 53318
" />
<path d="M58123 52386
L57447 52205
" />
<path d="M57447 52205
L57628 51529
" />
<path d="M58560 48052
L58741 47376
" />
</g>
<g style="fill:#840084; fill-opacity:0.0; 
stroke:#840084; stroke-width:150; stroke-opacity:1; 
stroke-linecap:round; stroke-linejoin:round;">
</g>
<g style="fill:#840084; fill-opacity:0.0; 
stroke:#840084; stroke-width:78.7402; stroke-opacity:1; 
stroke-linecap:round; stroke-linejoin:round;">
<path d="M71271 52728
L70930 52531
" />
<path d="M71384 52533
L71105 52567
" />
<path d="M71043 52336
L71125 52644
" />
<path d="M71571 52209
L71459 52403
" />
<path d="M71515 52306
L71174 52109
L71204 52170
L71218 52221
L71215 52263
" />
<path d="M71489 51901
L71454 51924
L71428 51931
L71386 51929
L71370 51919
L71347 51884
L71340 51859
L71343 51817
L71380 51752
L71415 51729
L71441 51722
L71483 51724
L71499 51734
L71522 51769
L71529 51794
L71526 51836
L71489 51901
L71486 51943
L71493 51969
L71516 52004
L71581 52041
L71623 52044
L71649 52037
L71684 52014
L71721 51949
L71724 51907
L71717 51881
L71694 51846
L71629 51809
L71587 51806
L71561 51813
L71526 51836
" />
</g>
<g style="fill:#C2C200; fill-opacity:0.0; 
stroke:#C2C200; stroke-width:78.7402; stroke-opacity:1; 
stroke-linecap:round; stroke-linejoin:round;">
</g>
<g style="fill:#C2C200; fill-opacity:0.0; 
stroke:#C2C200; stroke-width:59.0551; stroke-opacity:1; 
stroke-linecap:round; stroke-linejoin:round;">
<path d="M53215 24226
L53271 24245
L53365 24245
L53402 24226
L53421 24208
L53440 24170
L53440 24133
L53421 24095
L53402 24076
L53365 24058
L53290 24039
L53252 24020
L53233 24001
L53215 23964
L53215 23926
L53233 23889
L53252 23870
L53290 23851
L53383 23851
L53440 23870
" />
<path d="M53571 23851
L53665 24245
L53740 23964
L53815 24245
L53908 23851
" />
<path d="M54265 24245
L54040 24245
" />
<path d="M54152 24245
L54152 23851
L54115 23908
L54077 23945
L54040 23964
" />
</g>
<g style="fill:#008484; fill-opacity:0.0; 
stroke:#008484; stroke-width:59.0551; stroke-opacity:1; 
stroke-linecap:round; stroke-linejoin:round;">
</g>
<g style="fill:#008484; fill-opacity:0.0; 
stroke:#008484; stroke-width:120; stroke-opacity:1; 
stroke-linecap:round; stroke-linejoin:round;">
<path d="M59276 23062
L59676 23062
" />
<path d="M59476 23662
L59476 23062
" />
<path d="M60309 23662
L60076 23376
" />
<path d="M59909 23662
L59909 23062
L60176 23062
L60242 23091
L60276 23119
L60309 23176
L60309 23262
L60276 23319
L60242 23348
L60176 23376
L59909 23376
" />
<path d="M61009 23662
L60776 23376
" />
<path d="M60609 23662
L60609 23062
L60876 23062
L60942 23091
L60976 23119
L61009 23176
L61009 23262
L60976 23319
L60942 23348
L60876 23376
L60609 23376
" />
<path d="M61276 23633
L61376 23662
L61542 23662
L61609 23633
L61642 23605
L61676 23548
L61676 23491
L61642 23433
L61609 23405
L61542 23376
L61409 23348
L61342 23319
L61309 23291
L61276 23233
L61276 23176
L61309 23119
L61342 23091
L61409 23062
L61576 23062
L61676 23091
" />
</g>
<g style="fill:#008484; fill-opacity:0.0; 
stroke:#008484; stroke-width:80; stroke-opacity:1; 
stroke-linecap:round; stroke-linejoin:round;">
<path d="M40845 27926
L41250 27926
L41298 27897
L41321 27869
L41345 27812
L41345 27697
L41321 27640
L41298 27612
L41250 27583
L40845 27583
" />
<path d="M41345 26983
L41345 27326
" />
<path d="M41345 27154
L40845 27154
L40917 27212
L40964 27269
L40988 27326
" />
</g>
<g style="fill:#008484; fill-opacity:0.0; 
stroke:#008484; stroke-width:59.0551; stroke-opacity:1; 
stroke-linecap:round; stroke-linejoin:round;">
<path d="M39725 21934
L39425 22047
L39725 22159
" />
<path d="M39912 22047
L40212 22047
" />
<path d="M40624 22197
L40493 22009
" />
<path d="M40399 22197
L40399 21803
L40549 21803
L40587 21822
L40606 21841
L40624 21878
L40624 21934
L40606 21972
L40587 21991
L40549 22009
L40399 22009
" />
<path d="M40774 22084
L40962 22084
" />
<path d="M40737 22197
L40868 21803
L40999 22197
" />
<path d="M41093 21803
L41187 22197
L41262 21916
L41337 22197
L41431 21803
" />
</g>
<g style="fill:#840084; fill-opacity:0.0; 
stroke:#840084; stroke-width:59.0551; stroke-opacity:1; 
stroke-linecap:round; stroke-linejoin:round;">
</g>
<g style="fill:#840084; fill-opacity:0.0; 
stroke:#840084; stroke-width:78.7402; stroke-opacity:1; 
stroke-linecap:round; stroke-linejoin:round;">
<path d="M33968 29816
L33968 29422
" />
<path d="M34193 29816
L34025 29591
" />
<path d="M34193 29422
L33968 29647
" />
<path d="M34568 29816
L34343 29816
" />
<path d="M34456 29816
L34456 29422
L34418 29478
L34381 29516
L34343 29534
" />
<path d="M41468 27941
L41468 27547
" />
<path d="M41693 27941
L41525 27716
" />
<path d="M41693 27547
L41468 27772
" />
<path d="M41843 27584
L41862 27566
L41899 27547
L41993 27547
L42031 27566
L42049 27584
L42068 27622
L42068 27659
L42049 27716
L41824 27941
L42068 27941
" />
<path d="M48968 27003
L48968 26609
" />
<path d="M49193 27003
L49025 26778
" />
<path d="M49193 26609
L48968 26834
" />
<path d="M49324 26609
L49568 26609
L49437 26759
L49493 26759
L49531 26778
L49549 26797
L49568 26834
L49568 26928
L49549 26966
L49531 26984
L49493 27003
L49381 27003
L49343 26984
L49324 26966
" />
<path d="M56468 27941
L56468 27547
" />
<path d="M56693 27941
L56525 27716
" />
<path d="M56693 27547
L56468 27772
" />
<path d="M57031 27678
L57031 27941
" />
<path d="M56937 27528
L56843 27809
L57087 27809
" />
<path d="M63968 28878
L63968 28484
" />
<path d="M64193 28878
L64025 28653
" />
<path d="M64193 28484
L63968 28709
" />
<path d="M64549 28484
L64362 28484
L64343 28672
L64362 28653
L64399 28634
L64493 28634
L64531 28653
L64549 28672
L64568 28709
L64568 28803
L64549 28841
L64531 28859
L64493 28878
L64399 28878
L64362 28859
L64343 28841
" />
<path d="M33968 37316
L33968 36922
" />
<path d="M34193 37316
L34025 37091
" />
<path d="M34193 36922
L33968 37147
" />
<path d="M34531 36922
L34456 36922
L34418 36941
L34399 36959
L34362 37016
L34343 37091
L34343 37241
L34362 37278
L34381 37297
L34418 37316
L34493 37316
L34531 37297
L34549 37278
L34568 37241
L34568 37147
L34549 37109
L34531 37091
L34493 37072
L34418 37072
L34381 37091
L34362 37109
L34343 37147
" />
<path d="M41468 35441
L41468 35047
" />
<path d="M41693 35441
L41525 35216
" />
<path d="M41693 35047
L41468 35272
" />
<path d="M41824 35047
L42087 35047
L41918 35441
" />
<path d="M48968 34503
L48968 34109
" />
<path d="M49193 34503
L49025 34278
" />
<path d="M49193 34109
L48968 34334
" />
<path d="M49418 34278
L49381 34259
L49362 34241
L49343 34203
L49343 34184
L49362 34147
L49381 34128
L49418 34109
L49493 34109
L49531 34128
L49549 34147
L49568 34184
L49568 34203
L49549 34241
L49531 34259
L49493 34278
L49418 34278
L49381 34297
L49362 34316
L49343 34353
L49343 34428
L49362 34466
L49381 34484
L49418 34503
L49493 34503
L49531 34484
L49549 34466
L49568 34428
L49568 34353
L49549 34316
L49531 34297
L49493 34278
" />
<path d="M56468 35441
L56468 35047
" />
<path d="M56693 35441
L56525 35216
" />
<path d="M56693 35047
L56468 35272
" />
<path d="M56881 35441
L56956 35441
L56993 35422
L57012 35403
L57049 35347
L57068 35272
L57068 35122
L57049 35084
L57031 35066
L56993 35047
L56918 35047
L56881 35066
L56862 35084
L56843 35122
L56843 35216
L56862 35253
L56881 35272
L56918 35291
L56993 35291
L57031 35272
L57049 35253
L57068 35216
" />
<path d="M63781 36378
L63781 35984
" />
<path d="M64006 36378
L63837 36153
" />
<path d="M64006 35984
L63781 36209
" />
<path d="M64381 36378
L64156 36378
" />
<path d="M64268 36378
L64268 35984
L64231 36041
L64193 36078
L64156 36097
" />
<path d="M64624 35984
L64662 35984
L64699 36003
L64718 36022
L64737 36059
L64756 36134
L64756 36228
L64737 36303
L64718 36341
L64699 36359
L64662 36378
L64624 36378
L64587 36359
L64568 36341
L64549 36303
L64531 36228
L64531 36134
L64549 36059
L64568 36022
L64587 36003
L64624 35984
" />
<path d="M33781 44816
L33781 44422
" />
<path d="M34006 44816
L33837 44591
" />
<path d="M34006 44422
L33781 44647
" />
<path d="M34381 44816
L34156 44816
" />
<path d="M34268 44816
L34268 44422
L34231 44478
L34193 44516
L34156 44534
" />
<path d="M34756 44816
L34531 44816
" />
<path d="M34643 44816
L34643 44422
L34606 44478
L34568 44516
L34531 44534
" />
<path d="M41281 42941
L41281 42547
" />
<path d="M41506 42941
L41337 42716
" />
<path d="M41506 42547
L41281 42772
" />
<path d="M41881 42941
L41656 42941
" />
<path d="M41768 42941
L41768 42547
L41731 42603
L41693 42641
L41656 42659
" />
<path d="M42031 42584
L42049 42566
L42087 42547
L42181 42547
L42218 42566
L42237 42584
L42256 42622
L42256 42659
L42237 42716
L42012 42941
L42256 42941
" />
<path d="M48781 42003
L48781 41609
" />
<path d="M49006 42003
L48837 41778
" />
<path d="M49006 41609
L48781 41834
" />
<path d="M49381 42003
L49156 42003
" />
<path d="M49268 42003
L49268 41609
L49231 41666
L49193 41703
L49156 41722
" />
<path d="M49512 41609
L49756 41609
L49624 41759
L49681 41759
L49718 41778
L49737 41797
L49756 41834
L49756 41928
L49737 41966
L49718 41984
L49681 42003
L49568 42003
L49531 41984
L49512 41966
" />
<path d="M56281 42941
L56281 42547
" />
<path d="M56506 42941
L56337 42716
" />
<path d="M56506 42547
L56281 42772
" />
<path d="M56881 42941
L56656 42941
" />
<path d="M56768 42941
L56768 42547
L56731 42603
L56693 42641
L56656 42659
" />
<path d="M57218 42678
L57218 42941
" />
<path d="M57124 42528
L57031 42809
L57274 42809
" />
<path d="M63781 43878
L63781 43484
" />
<path d="M64006 43878
L63837 43653
" />
<path d="M64006 43484
L63781 43709
" />
<path d="M64381 43878
L64156 43878
" />
<path d="M64268 43878
L64268 43484
L64231 43541
L64193 43578
L64156 43597
" />
<path d="M64737 43484
L64549 43484
L64531 43672
L64549 43653
L64587 43634
L64681 43634
L64718 43653
L64737 43672
L64756 43709
L64756 43803
L64737 43841
L64718 43859
L64681 43878
L64587 43878
L64549 43859
L64531 43841
" />
<path d="M51593 51378
L51593 50984
" />
<path d="M51818 51378
L51650 51153
" />
<path d="M51818 50984
L51593 51209
" />
<path d="M52193 51378
L51968 51378
" />
<path d="M52081 51378
L52081 50984
L52043 51041
L52006 51078
L51968 51097
" />
<path d="M52531 50984
L52456 50984
L52418 51003
L52399 51022
L52362 51078
L52343 51153
L52343 51303
L52362 51341
L52381 51359
L52418 51378
L52493 51378
L52531 51359
L52549 51341
L52568 51303
L52568 51209
L52549 51172
L52531 51153
L52493 51134
L52418 51134
L52381 51153
L52362 51172
L52343 51209
" />
<path d="M59561 52128
L59663 51748
" />
<path d="M59778 52186
L59674 51925
" />
<path d="M59880 51806
L59605 51965
" />
<path d="M60140 52283
L59923 52225
" />
<path d="M60032 52254
L60134 51874
L60083 51918
L60037 51945
L59996 51953
" />
<path d="M60369 51937
L60623 52005
L60358 52341
" />
</g>
<g style="fill:#000000; fill-opacity:0.0; 
stroke:#000000; stroke-width:78.7402; stroke-opacity:1; 
stroke-linecap:round; stroke-linejoin:round;">
</g>
<g style="fill:#C2C2C2; fill-opacity:0.0; 
stroke:#C2C2C2; stroke-width:78.7402; stroke-opacity:1; 
stroke-linecap:round; stroke-linejoin:round;">
</g>
<g style="fill:#C2C2C2; fill-opacity:0.0; 
stroke:#C2C2C2; stroke-width:118.11; stroke-opacity:1; 
stroke-linecap:round; stroke-linejoin:round;">
<path d="M78798 42390
L78798 42277
L78770 42221
L78742 42193
L78658 42137
L78545 42109
L78320 42109
L78264 42137
L78236 42165
L78208 42221
L78208 42334
L78236 42390
L78264 42418
L78320 42446
L78461 42446
L78517 42418
L78545 42390
L78573 42334
L78573 42221
L78545 42165
L78517 42137
L78461 42109
" />
<path d="M78208 41602
L78208 41715
L78236 41771
L78264 41799
L78348 41856
L78461 41884
L78686 41884
L78742 41856
L78770 41827
L78798 41771
L78798 41659
L78770 41602
L78742 41574
L78686 41546
L78545 41546
L78489 41574
L78461 41602
L78433 41659
L78433 41771
L78461 41827
L78489 41856
L78545 41884
" />
<path d="M78742 41293
L78770 41265
L78798 41293
L78770 41321
L78742 41293
L78798 41293
" />
<path d="M78208 40899
L78208 40843
L78236 40787
L78264 40759
L78320 40731
L78433 40703
L78573 40703
L78686 40731
L78742 40759
L78770 40787
L78798 40843
L78798 40899
L78770 40956
L78742 40984
L78686 41012
L78573 41040
L78433 41040
L78320 41012
L78264 40984
L78236 40956
L78208 40899
" />
<path d="M78798 40140
L78798 40478
" />
<path d="M78798 40309
L78208 40309
L78292 40365
L78348 40421
L78376 40478
" />
<path d="M78264 39915
L78236 39887
L78208 39831
L78208 39690
L78236 39634
L78264 39606
L78320 39578
L78376 39578
L78461 39606
L78798 39943
L78798 39578
" />
<path d="M78798 38875
L78404 38875
" />
<path d="M78461 38875
L78433 38847
L78404 38790
L78404 38706
L78433 38650
L78489 38622
L78798 38622
" />
<path d="M78489 38622
L78433 38593
L78404 38537
L78404 38453
L78433 38397
L78489 38368
L78798 38368
" />
<path d="M78798 38087
L78404 38087
" />
<path d="M78461 38087
L78433 38059
L78404 38003
L78404 37919
L78433 37862
L78489 37834
L78798 37834
" />
<path d="M78489 37834
L78433 37806
L78404 37750
L78404 37665
L78433 37609
L78489 37581
L78798 37581
" />
<path d="M78000 58900
L78000 21100
" />
<path d="M69800 58900
L79062 58900
" />
<path d="M69800 21100
L79062 21100
" />
<path d="M78000 21100
L78230 21543
" />
<path d="M78000 21100
L77769 21543
" />
<path d="M78000 58900
L78230 58456
" />
<path d="M78000 58900
L77769 58456
" />
</g>
<g style="fill:#C2C2C2; fill-opacity:0.0; 
stroke:#C2C2C2; stroke-width:78.7402; stroke-opacity:1; 
stroke-linecap:round; stroke-linejoin:round;">
<path d="M62400 21100
L77200 21100
" />
</g>
<g style="fill:#C2C2C2; fill-opacity:0.0; 
stroke:#C2C2C2; stroke-width:118.11; stroke-opacity:1; 
stroke-linecap:round; stroke-linejoin:round;">
<path d="M51059 14735
L50722 14735
" />
<path d="M50890 14735
L50890 14145
L50834 14229
L50778 14285
L50722 14313
" />
<path d="M51622 14735
L51284 14735
" />
<path d="M51453 14735
L51453 14145
L51397 14229
L51340 14285
L51284 14313
" />
<path d="M52128 14145
L52015 14145
L51959 14173
L51931 14201
L51875 14285
L51847 14398
L51847 14623
L51875 14679
L51903 14707
L51959 14735
L52072 14735
L52128 14707
L52156 14679
L52184 14623
L52184 14482
L52156 14426
L52128 14398
L52072 14370
L51959 14370
L51903 14398
L51875 14426
L51847 14482
" />
<path d="M52437 14679
L52465 14707
L52437 14735
L52409 14707
L52437 14679
L52437 14735
" />
<path d="M53000 14145
L52718 14145
L52690 14426
L52718 14398
L52775 14370
L52915 14370
L52971 14398
L53000 14426
L53028 14482
L53028 14623
L53000 14679
L52971 14707
L52915 14735
L52775 14735
L52718 14707
L52690 14679
" />
<path d="M53365 14398
L53309 14370
L53281 14341
L53253 14285
L53253 14257
L53281 14201
L53309 14173
L53365 14145
L53478 14145
L53534 14173
L53562 14201
L53590 14257
L53590 14285
L53562 14341
L53534 14370
L53478 14398
L53365 14398
L53309 14426
L53281 14454
L53253 14510
L53253 14623
L53281 14679
L53309 14707
L53365 14735
L53478 14735
L53534 14707
L53562 14679
L53590 14623
L53590 14510
L53562 14454
L53534 14426
L53478 14398
" />
<path d="M54096 14145
L53984 14145
L53928 14173
L53899 14201
L53843 14285
L53815 14398
L53815 14623
L53843 14679
L53871 14707
L53928 14735
L54040 14735
L54096 14707
L54124 14679
L54153 14623
L54153 14482
L54124 14426
L54096 14398
L54040 14370
L53928 14370
L53871 14398
L53843 14426
L53815 14482
" />
<path d="M54856 14735
L54856 14341
" />
<path d="M54856 14398
L54884 14370
L54940 14341
L55024 14341
L55081 14370
L55109 14426
L55109 14735
" />
<path d="M55109 14426
L55137 14370
L55193 14341
L55277 14341
L55334 14370
L55362 14426
L55362 14735
" />
<path d="M55643 14735
L55643 14341
" />
<path d="M55643 14398
L55671 14370
L55727 14341
L55812 14341
L55868 14370
L55896 14426
L55896 14735
" />
<path d="M55896 14426
L55924 14370
L55980 14341
L56065 14341
L56121 14370
L56149 14426
L56149 14735
" />
<path d="M30500 15000
L76400 15000
" />
<path d="M30500 24200
L30500 13937
" />
<path d="M76400 24200
L76400 13937
" />
<path d="M76400 15000
L75956 15230
" />
<path d="M76400 15000
L75956 14769
" />
<path d="M30500 15000
L30943 15230
" />
<path d="M30500 15000
L30943 14769
" />
</g>
<g style="fill:#C2C2C2; fill-opacity:0.0; 
stroke:#C2C2C2; stroke-width:78.7402; stroke-opacity:1; 
stroke-linecap:round; stroke-linejoin:round;">
<path d="M76400 47600
L76400 19700
" />
</g>
<g style="fill:#C2C2C2; fill-opacity:0.0; 
stroke:#C2C2C2; stroke-width:118.11; stroke-opacity:1; 
stroke-linecap:round; stroke-linejoin:round;">
<path d="M73982 50277
L68786 47277
" />
<path d="M70982 55473
L73982 50277
" />
<path d="M65786 52473
L70982 55473
" />
<path d="M68786 47277
L65786 52473
" />
<path d="M66176 52758
L69227 47473
" />
<path d="M70540 55277
L66176 52758
" />
<path d="M73592 49992
L70540 55277
" />
<path d="M73592 49992
L69227 47473
" />
</g>
<g style="fill:#C2C2C2; fill-opacity:0.0; 
stroke:#C2C2C2; stroke-width:60; stroke-opacity:1; 
stroke-linecap:round; stroke-linejoin:round;">
<path d="M63423 55165
L69936 43885
" />
<path d="M69936 43885
L76345 47585
" />
<path d="M76345 47585
L69832 58865
" />
<path d="M69832 58865
L63423 55165
" />
</g>
<g style="fill:#C2C2C2; fill-opacity:0.0; 
stroke:#C2C2C2; stroke-width:118.11; stroke-opacity:1; 
stroke-linecap:round; stroke-linejoin:round;">
<path d="M70540 55277
L66176 52758
" />
<path d="M70540 55277
L73592 49992
" />
<path d="M73592 49992
L69227 47473
" />
<path d="M69227 47473
L66176 52758
" />
<path d="M65786 52473
L68786 47277
" />
<path d="M68786 47277
L73982 50277
" />
<path d="M73982 50277
L70982 55473
" />
<path d="M70982 55473
L65786 52473
" />
</g>
<g style="fill:#C2C2C2; fill-opacity:0.0; 
stroke:#C2C2C2; stroke-width:10; stroke-opacity:1; 
stroke-linecap:round; stroke-linejoin:round;">
<path d="M60509 21141
L60509 21141
" />
</g>
<g style="fill:#C2C2C2; fill-opacity:0.0; 
stroke:#C2C2C2; stroke-width:150; stroke-opacity:1; 
stroke-linecap:round; stroke-linejoin:round;">
<path d="M58619 25891
L58619 21141
" />
<path d="M62399 25891
L58619 25891
" />
<path d="M62399 21141
L62399 25891
" />
<path d="M61394 21141
L62399 21141
" />
<path d="M61394 21651
L61394 21141
" />
<path d="M59624 21651
L61394 21651
" />
<path d="M59624 21141
L59624 21651
" />
<path d="M58619 21141
L59624 21141
" />
<path d="M62399 21141
L61394 21141
" />
<path d="M61394 21141
L61394 21651
" />
<path d="M61394 21651
L59624 21651
" />
<path d="M59624 21651
L59624 21141
" />
<path d="M59624 21141
L58619 21141
" />
<path d="M58619 21141
L58619 25891
" />
<path d="M58619 25891
L62399 25891
" />
<path d="M62399 25891
L62399 21141
" />
</g>
<g style="fill:#C2C2C2; fill-opacity:0.0; 
stroke:#C2C2C2; stroke-width:10; stroke-opacity:1; 
stroke-linecap:round; stroke-linejoin:round;">
<path d="M60509 21141
L60509 21141
" />
</g>
<g style="fill:#C2C2C2; fill-opacity:0.0; 
stroke:#C2C2C2; stroke-width:60; stroke-opacity:1; 
stroke-linecap:round; stroke-linejoin:round;">
<path d="M30559 24237
L37959 24237
" />
<path d="M37959 24237
L37959 31637
" />
<path d="M37959 31637
L30559 31637
" />
<path d="M30559 31637
L30559 24237
" />
</g>
<g style="fill:#C2C2C2; fill-opacity:0.0; 
stroke:#C2C2C2; stroke-width:118.11; stroke-opacity:1; 
stroke-linecap:round; stroke-linejoin:round;">
<path d="M31208 30457
L31208 25418
" />
<path d="M31208 30457
L37310 30457
" />
<path d="M37310 30457
L37310 25418
" />
<path d="M37310 25418
L31208 25418
" />
<path d="M31259 24937
L37259 24937
" />
<path d="M37259 24937
L37259 30937
" />
<path d="M37259 30937
L31259 30937
" />
<path d="M31259 30937
L31259 24937
" />
</g>
<g style="fill:#C2C2C2; fill-opacity:0.0; 
stroke:#C2C2C2; stroke-width:60; stroke-opacity:1; 
stroke-linecap:round; stroke-linejoin:round;">
<path d="M38059 22362
L45459 22362
" />
<path d="M45459 22362
L45459 29762
" />
<path d="M45459 29762
L38059 29762
" />
<path d="M38059 29762
L38059 22362
" />
</g>
<g style="fill:#C2C2C2; fill-opacity:0.0; 
stroke:#C2C2C2; stroke-width:118.11; stroke-opacity:1; 
stroke-linecap:round; stroke-linejoin:round;">
<path d="M38708 28582
L38708 23543
" />
<path d="M38708 28582
L44810 28582
" />
<path d="M44810 28582
L44810 23543
" />
<path d="M44810 23543
L38708 23543
" />
<path d="M38759 23062
L44759 23062
" />
<path d="M44759 23062
L44759 29062
" />
<path d="M44759 29062
L38759 29062
" />
<path d="M38759 29062
L38759 23062
" />
</g>
<g style="fill:#C2C2C2; fill-opacity:0.0; 
stroke:#C2C2C2; stroke-width:60; stroke-opacity:1; 
stroke-linecap:round; stroke-linejoin:round;">
<path d="M45559 21425
L52959 21425
" />
<path d="M52959 21425
L52959 28825
" />
<path d="M52959 28825
L45559 28825
" />
<path d="M45559 28825
L45559 21425
" />
</g>
<g style="fill:#C2C2C2; fill-opacity:0.0; 
stroke:#C2C2C2; stroke-width:118.11; stroke-opacity:1; 
stroke-linecap:round; stroke-linejoin:round;">
<path d="M46208 27645
L46208 22605
" />
<path d="M46208 27645
L52310 27645
" />
<path d="M52310 27645
L52310 22605
" />
<path d="M52310 22605
L46208 22605
" />
<path d="M46259 22125
L52259 22125
" />
<path d="M52259 22125
L52259 28125
" />
<path d="M52259 28125
L46259 28125
" />
<path d="M46259 28125
L46259 22125
" />
</g>
<g style="fill:#C2C2C2; fill-opacity:0.0; 
stroke:#C2C2C2; stroke-width:60; stroke-opacity:1; 
stroke-linecap:round; stroke-linejoin:round;">
<path d="M53059 22362
L60459 22362
" />
<path d="M60459 22362
L60459 29762
" />
<path d="M60459 29762
L53059 29762
" />
<path d="M53059 29762
L53059 22362
" />
</g>
<g style="fill:#C2C2C2; fill-opacity:0.0; 
stroke:#C2C2C2; stroke-width:118.11; stroke-opacity:1; 
stroke-linecap:round; stroke-linejoin:round;">
<path d="M53708 28582
L53708 23543
" />
<path d="M53708 28582
L59810 28582
" />
<path d="M59810 28582
L59810 23543
" />
<path d="M59810 23543
L53708 23543
" />
<path d="M53759 23062
L59759 23062
" />
<path d="M59759 23062
L59759 29062
" />
<path d="M59759 29062
L53759 29062
" />
<path d="M53759 29062
L53759 23062
" />
</g>
<g style="fill:#C2C2C2; fill-opacity:0.0; 
stroke:#C2C2C2; stroke-width:60; stroke-opacity:1; 
stroke-linecap:round; stroke-linejoin:round;">
<path d="M60559 23300
L67959 23300
" />
<path d="M67959 23300
L67959 30700
" />
<path d="M67959 30700
L60559 30700
" />
<path d="M60559 30700
L60559 23300
" />
</g>
<g style="fill:#C2C2C2; fill-opacity:0.0; 
stroke:#C2C2C2; stroke-width:118.11; stroke-opacity:1; 
stroke-linecap:round; stroke-linejoin:round;">
<path d="M61208 29520
L61208 24480
" />
<path d="M61208 29520
L67310 29520
" />
<path d="M67310 29520
L67310 24480
" />
<path d="M67310 24480
L61208 24480
" />
<path d="M61259 24000
L67259 24000
" />
<path d="M67259 24000
L67259 30000
" />
<path d="M67259 30000
L61259 30000
" />
<path d="M61259 30000
L61259 24000
" />
</g>
<g style="fill:#C2C2C2; fill-opacity:0.0; 
stroke:#C2C2C2; stroke-width:60; stroke-opacity:1; 
stroke-linecap:round; stroke-linejoin:round;">
<path d="M30559 31737
L37959 31737
" />
<path d="M37959 31737
L37959 39137
" />
<path d="M37959 39137
L30559 39137
" />
<path d="M30559 39137
L30559 31737
" />
</g>
<g style="fill:#C2C2C2; fill-opacity:0.0; 
stroke:#C2C2C2; stroke-width:118.11; stroke-opacity:1; 
stroke-linecap:round; stroke-linejoin:round;">
<path d="M31208 37957
L31208 32918
" />
<path d="M31208 37957
L37310 37957
" />
<path d="M37310 37957
L37310 32918
" />
<path d="M37310 32918
L31208 32918
" />
<path d="M31259 32437
L37259 32437
" />
<path d="M37259 32437
L37259 38437
" />
<path d="M37259 38437
L31259 38437
" />
<path d="M31259 38437
L31259 32437
" />
</g>
<g style="fill:#C2C2C2; fill-opacity:0.0; 
stroke:#C2C2C2; stroke-width:60; stroke-opacity:1; 
stroke-linecap:round; stroke-linejoin:round;">
<path d="M38059 29862
L45459 29862
" />
<path d="M45459 29862
L45459 37262
" />
<path d="M45459 37262
L38059 37262
" />
<path d="M38059 37262
L38059 29862
" />
</g>
<g style="fill:#C2C2C2; fill-opacity:0.0; 
stroke:#C2C2C2; stroke-width:118.11; stroke-opacity:1; 
stroke-linecap:round; stroke-linejoin:round;">
<path d="M38708 36082
L38708 31043
" />
<path d="M38708 36082
L44810 36082
" />
<path d="M44810 36082
L44810 31043
" />
<path d="M44810 31043
L38708 31043
" />
<path d="M38759 30562
L44759 30562
" />
<path d="M44759 30562
L44759 36562
" />
<path d="M44759 36562
L38759 36562
" />
<path d="M38759 36562
L38759 30562
" />
</g>
<g style="fill:#C2C2C2; fill-opacity:0.0; 
stroke:#C2C2C2; stroke-width:60; stroke-opacity:1; 
stroke-linecap:round; stroke-linejoin:round;">
<path d="M45559 28925
L52959 28925
" />
<path d="M52959 28925
L52959 36325
" />
<path d="M52959 36325
L45559 36325
" />
<path d="M45559 36325
L45559 28925
" />
</g>
<g style="fill:#C2C2C2; fill-opacity:0.0; 
stroke:#C2C2C2; stroke-width:118.11; stroke-opacity:1; 
stroke-linecap:round; stroke-linejoin:round;">
<path d="M46208 35145
L46208 30105
" />
<path d="M46208 35145
L52310 35145
" />
<path d="M52310 35145
L52310 30105
" />
<path d="M52310 30105
L46208 30105
" />
<path d="M46259 29625
L52259 29625
" />
<path d="M52259 29625
L52259 35625
" />
<path d="M52259 35625
L46259 35625
" />
<path d="M46259 35625
L46259 29625
" />
</g>
<g style="fill:#C2C2C2; fill-opacity:0.0; 
stroke:#C2C2C2; stroke-width:60; stroke-opacity:1; 
stroke-linecap:round; stroke-linejoin:round;">
<path d="M53059 29862
L60459 29862
" />
<path d="M60459 29862
L60459 37262
" />
<path d="M60459 37262
L53059 37262
" />
<path d="M53059 37262
L53059 29862
" />
</g>
<g style="fill:#C2C2C2; fill-opacity:0.0; 
stroke:#C2C2C2; stroke-width:118.11; stroke-opacity:1; 
stroke-linecap:round; stroke-linejoin:round;">
<path d="M53708 36082
L53708 31043
" />
<path d="M53708 36082
L59810 36082
" />
<path d="M59810 36082
L59810 31043
" />
<path d="M59810 31043
L53708 31043
" />
<path d="M53759 30562
L59759 30562
" />
<path d="M59759 30562
L59759 36562
" />
<path d="M59759 36562
L53759 36562
" />
<path d="M53759 36562
L53759 30562
" />
</g>
<g style="fill:#C2C2C2; fill-opacity:0.0; 
stroke:#C2C2C2; stroke-width:60; stroke-opacity:1; 
stroke-linecap:round; stroke-linejoin:round;">
<path d="M60559 30800
L67959 30800
" />
<path d="M67959 30800
L67959 38200
" />
<path d="M67959 38200
L60559 38200
" />
<path d="M60559 38200
L60559 30800
" />
</g>
<g style="fill:#C2C2C2; fill-opacity:0.0; 
stroke:#C2C2C2; stroke-width:118.11; stroke-opacity:1; 
stroke-linecap:round; stroke-linejoin:round;">
<path d="M61208 37020
L61208 31980
" />
<path d="M61208 37020
L67310 37020
" />
<path d="M67310 37020
L67310 31980
" />
<path d="M67310 31980
L61208 31980
" />
<path d="M61259 31500
L67259 31500
" />
<path d="M67259 31500
L67259 37500
" />
<path d="M67259 37500
L61259 37500
" />
<path d="M61259 37500
L61259 31500
" />
</g>
<g style="fill:#C2C2C2; fill-opacity:0.0; 
stroke:#C2C2C2; stroke-width:60; stroke-opacity:1; 
stroke-linecap:round; stroke-linejoin:round;">
<path d="M30559 39237
L37959 39237
" />
<path d="M37959 39237
L37959 46637
" />
<path d="M37959 46637
L30559 46637
" />
<path d="M30559 46637
L30559 39237
" />
</g>
<g style="fill:#C2C2C2; fill-opacity:0.0; 
stroke:#C2C2C2; stroke-width:118.11; stroke-opacity:1; 
stroke-linecap:round; stroke-linejoin:round;">
<path d="M31208 45457
L31208 40418
" />
<path d="M31208 45457
L37310 45457
" />
<path d="M37310 45457
L37310 40418
" />
<path d="M37310 40418
L31208 40418
" />
<path d="M31259 39937
L37259 39937
" />
<path d="M37259 39937
L37259 45937
" />
<path d="M37259 45937
L31259 45937
" />
<path d="M31259 45937
L31259 39937
" />
</g>
<g style="fill:#C2C2C2; fill-opacity:0.0; 
stroke:#C2C2C2; stroke-width:60; stroke-opacity:1; 
stroke-linecap:round; stroke-linejoin:round;">
<path d="M38059 37362
L45459 37362
" />
<path d="M45459 37362
L45459 44762
" />
<path d="M45459 44762
L38059 44762
" />
<path d="M38059 44762
L38059 37362
" />
</g>
<g style="fill:#C2C2C2; fill-opacity:0.0; 
stroke:#C2C2C2; stroke-width:118.11; stroke-opacity:1; 
stroke-linecap:round; stroke-linejoin:round;">
<path d="M38708 43582
L38708 38543
" />
<path d="M38708 43582
L44810 43582
" />
<path d="M44810 43582
L44810 38543
" />
<path d="M44810 38543
L38708 38543
" />
<path d="M38759 38062
L44759 38062
" />
<path d="M44759 38062
L44759 44062
" />
<path d="M44759 44062
L38759 44062
" />
<path d="M38759 44062
L38759 38062
" />
</g>
<g style="fill:#C2C2C2; fill-opacity:0.0; 
stroke:#C2C2C2; stroke-width:60; stroke-opacity:1; 
stroke-linecap:round; stroke-linejoin:round;">
<path d="M45559 36425
L52959 36425
" />
<path d="M52959 36425
L52959 43825
" />
<path d="M52959 43825
L45559 43825
" />
<path d="M45559 43825
L45559 36425
" />
</g>
<g style="fill:#C2C2C2; fill-opacity:0.0; 
stroke:#C2C2C2; stroke-width:118.11; stroke-opacity:1; 
stroke-linecap:round; stroke-linejoin:round;">
<path d="M46208 42645
L46208 37605
" />
<path d="M46208 42645
L52310 42645
" />
<path d="M52310 42645
L52310 37605
" />
<path d="M52310 37605
L46208 37605
" />
<path d="M46259 37125
L52259 37125
" />
<path d="M52259 37125
L52259 43125
" />
<path d="M52259 43125
L46259 43125
" />
<path d="M46259 43125
L46259 37125
" />
</g>
<g style="fill:#C2C2C2; fill-opacity:0.0; 
stroke:#C2C2C2; stroke-width:60; stroke-opacity:1; 
stroke-linecap:round; stroke-linejoin:round;">
<path d="M53059 37362
L60459 37362
" />
<path d="M60459 37362
L60459 44762
" />
<path d="M60459 44762
L53059 44762
" />
<path d="M53059 44762
L53059 37362
" />
</g>
<g style="fill:#C2C2C2; fill-opacity:0.0; 
stroke:#C2C2C2; stroke-width:118.11; stroke-opacity:1; 
stroke-linecap:round; stroke-linejoin:round;">
<path d="M53708 43582
L53708 38543
" />
<path d="M53708 43582
L59810 43582
" />
<path d="M59810 43582
L59810 38543
" />
<path d="M59810 38543
L53708 38543
" />
<path d="M53759 38062
L59759 38062
" />
<path d="M59759 38062
L59759 44062
" />
<path d="M59759 44062
L53759 44062
" />
<path d="M53759 44062
L53759 38062
" />
</g>
<g style="fill:#C2C2C2; fill-opacity:0.0; 
stroke:#C2C2C2; stroke-width:60; stroke-opacity:1; 
stroke-linecap:round; stroke-linejoin:round;">
<path d="M60559 38300
L67959 38300
" />
<path d="M67959 38300
L67959 45700
" />
<path d="M67959 45700
L60559 45700
" />
<path d="M60559 45700
L60559 38300
" />
</g>
<g style="fill:#C2C2C2; fill-opacity:0.0; 
stroke:#C2C2C2; stroke-width:118.11; stroke-opacity:1; 
stroke-linecap:round; stroke-linejoin:round;">
<path d="M61208 44520
L61208 39480
" />
<path d="M61208 44520
L67310 44520
" />
<path d="M67310 44520
L67310 39480
" />
<path d="M67310 39480
L61208 39480
" />
<path d="M61259 39000
L67259 39000
" />
<path d="M67259 39000
L67259 45000
" />
<path d="M67259 45000
L61259 45000
" />
<path d="M61259 45000
L61259 39000
" />
</g>
<g style="fill:#C2C2C2; fill-opacity:0.0; 
stroke:#C2C2C2; stroke-width:60; stroke-opacity:1; 
stroke-linecap:round; stroke-linejoin:round;">
<path d="M48371 45800
L55771 45800
" />
<path d="M55771 45800
L55771 53200
" />
<path d="M55771 53200
L48371 53200
" />
<path d="M48371 53200
L48371 45800
" />
</g>
<g style="fill:#C2C2C2; fill-opacity:0.0; 
stroke:#C2C2C2; stroke-width:118.11; stroke-opacity:1; 
stroke-linecap:round; stroke-linejoin:round;">
<path d="M49020 52020
L49020 46980
" />
<path d="M49020 52020
L55123 52020
" />
<path d="M55123 52020
L55123 46980
" />
<path d="M55123 46980
L49020 46980
" />
<path d="M49071 46500
L55071 46500
" />
<path d="M55071 46500
L55071 52500
" />
<path d="M55071 52500
L49071 52500
" />
<path d="M49071 52500
L49071 46500
" />
</g>
<g style="fill:#C2C2C2; fill-opacity:0.0; 
stroke:#C2C2C2; stroke-width:60; stroke-opacity:1; 
stroke-linecap:round; stroke-linejoin:round;">
<path d="M57893 45906
L65040 47821
" />
<path d="M65040 47821
L63125 54969
" />
<path d="M63125 54969
L55977 53054
" />
<path d="M55977 53054
L57893 45906
" />
</g>
<g style="fill:#C2C2C2; fill-opacity:0.0; 
stroke:#C2C2C2; stroke-width:118.11; stroke-opacity:1; 
stroke-linecap:round; stroke-linejoin:round;">
<path d="M56909 52082
L58214 47214
" />
<path d="M56909 52082
L62804 53661
" />
<path d="M62804 53661
L64108 48793
" />
<path d="M64108 48793
L58214 47214
" />
<path d="M58388 46763
L64183 48316
" />
<path d="M64183 48316
L62630 54112
" />
<path d="M62630 54112
L56835 52559
" />
<path d="M56835 52559
L58388 46763
" />
</g>
<g style="fill:#000000; fill-opacity:0.0; 
stroke:#000000; stroke-width:118.11; stroke-opacity:1; 
stroke-linecap:round; stroke-linejoin:round;">
</g>
<g style="fill:#C2C200; fill-opacity:0.0; 
stroke:#C2C200; stroke-width:118.11; stroke-opacity:1; 
stroke-linecap:round; stroke-linejoin:round;">
</g>
<g style="fill:#C2C200; fill-opacity:0.0; 
stroke:#C2C200; stroke-width:59.0551; stroke-opacity:1; 
stroke-linecap:round; stroke-linejoin:round;">
<path d="M58165 21375
L58634 21141
" />
<path d="M52540 21375
L58165 21375
" />
<path d="M62384 21141
L65196 23250
" />
<path d="M58634 21141
L62384 21141
" />
<path d="M69415 58641
L63321 55125
" />
<path d="M76212 48094
L70118 58406
" />
<path d="M75978 47391
L68009 42703
" />
<path d="M69415.6 58641.1 A524.078 524.078 0.0 0 0 70118.7 58406.7 " />
<path d="M76212.5 48094.2 A524.078 524.078 0.0 0 0 75978.1 47391.1 " />
<path d="M48321 53250
L44337 46687
" />
<path d="M48321 53250
L63321 55125
" />
<path d="M30978 46687
L44337 46687
" />
<path d="M68009 23719
L68009 42703
" />
<path d="M65196 23250
L67540 23250
" />
<path d="M38243 21375
L52540 21375
" />
<path d="M30509 24656
L30509 46219
" />
<path d="M37306 24187
L30978 24187
" />
<path d="M37774 21844
L37774 23719
" />
<path d="M30509.4 46219.2 A468.75 468.75 0.0 0 0 30978.1 46688 " />
<path d="M37306.2 24188 A468.75 468.75 0.0 0 0 37775 23719.2 " />
<path d="M38243.7 21375.5 A468.75 468.75 0.0 0 0 37775 21844.2 " />
<path d="M30978.1 24188 A468.75 468.75 0.0 0 0 30509.4 24656.7 " />
<path d="M68009.4 23719.2 A468.75 468.75 0.0 0 0 67540.6 23250.5 " />
</g> 
</svg>
